<?xml version="1.0" encoding="UTF-8"?>
<svg version="1.1" xmlns="http://www.w3.org/2000/svg" width="335" height="335">
<path d="M0 0 C110.55 0 221.1 0 335 0 C335 110.55 335 221.1 335 335 C224.45 335 113.9 335 0 335 C0 224.45 0 113.9 0 0 Z " fill="#1C2531" transform="translate(0,0)"/>
<path d="M0 0 C6.11210513 3.74102986 9.70859446 8.99023213 13.390625 15.01171875 C14.04289062 16.07003906 14.69515625 17.12835938 15.3671875 18.21875 C17.28975056 21.37346276 19.17320141 24.55031586 21.04833984 27.73339844 C22.52967568 30.24773565 24.0165549 32.75874806 25.50390625 35.26953125 C29.75830965 42.45581052 34.00249879 49.64808719 38.234375 56.84765625 C38.67160889 57.59144531 39.10884277 58.33523437 39.55932617 59.1015625 C40.39111612 60.51770209 41.22203931 61.93435121 42.05200195 63.3515625 C44.77219875 67.98979588 47.56115483 72.58045942 50.4296875 77.12890625 C51.390625 79.01171875 51.390625 79.01171875 51.390625 82.01171875 C49.45449679 83.80056621 47.55181294 85.37028092 45.453125 86.94921875 C44.83646973 87.42214355 44.21981445 87.89506836 43.58447266 88.38232422 C38.54010076 92.21735155 33.41763485 95.94794885 28.265625 99.63671875 C27.18293335 100.41776978 27.18293335 100.41776978 26.07836914 101.21459961 C25.39508545 101.69678955 24.71180176 102.17897949 24.0078125 102.67578125 C23.40565918 103.1032666 22.80350586 103.53075195 22.18310547 103.97119141 C20.26574357 105.0842119 18.55582784 105.57963175 16.390625 106.01171875 C10.42644427 95.20687029 4.49692016 84.4087245 -0.93359375 73.32421875 C-3.54312415 68.03853164 -6.45204516 62.98690516 -9.609375 58.01171875 C-14.23414779 67.14200084 -18.72468253 76.32608922 -23.109375 85.57421875 C-26.78753153 93.31763981 -30.61753297 100.92994042 -34.703125 108.46484375 C-36.80103062 112.34292239 -38.81136029 116.26259065 -40.796875 120.19921875 C-41.3081897 121.19937012 -41.3081897 121.19937012 -41.82983398 122.21972656 C-43.8805038 126.30193399 -45.41683211 130.35562098 -46.859375 134.69921875 C-48.74452845 139.32755231 -50.46456396 141.00809266 -55.046875 143.01171875 C-57.21688824 143.73327488 -59.40655412 144.39756823 -61.609375 145.01171875 C-62.79015625 145.36492187 -63.9709375 145.718125 -65.1875 146.08203125 C-67.57689619 146.78023144 -69.97285347 147.45638975 -72.375 148.109375 C-74.98732531 148.8381759 -77.50050249 149.65044075 -80.046875 150.57421875 C-87.70221118 153.19808162 -96.5032555 155.33658232 -104.609375 155.01171875 C-104.279375 153.36171875 -103.949375 151.71171875 -103.609375 150.01171875 C-102.949375 150.01171875 -102.289375 150.01171875 -101.609375 150.01171875 C-101.40183594 148.93019531 -101.19429688 147.84867188 -100.98046875 146.734375 C-99.50745776 140.84880868 -96.54982671 135.74998831 -93.671875 130.44921875 C-89.56666325 122.9618634 -89.56666325 122.9618634 -85.9609375 115.23046875 C-84.48729556 111.7209862 -82.74621112 108.40853691 -80.921875 105.07421875 C-78.15291758 99.95384006 -75.48890164 94.79846121 -72.921875 89.57421875 C-64.22579871 71.99311656 -54.55691272 54.90918048 -44.609375 38.01171875 C-43.49995636 36.11851515 -42.39058327 34.22528487 -41.28125 32.33203125 C-38.08000546 26.87827879 -34.85036152 21.44192121 -31.609375 16.01171875 C-31.2273291 15.3657373 -30.8452832 14.71975586 -30.45166016 14.05419922 C-23.52004252 2.37196108 -14.50699146 -5.49441443 0 0 Z " fill="#2C9DDD" transform="translate(179.609375,48.98828125)"/>
<path d="M0 0 C5.46448199 0.28245831 5.46448199 0.28245831 7.8203125 2.671875 C10.26380478 5.08327639 11.83305762 5.50580323 15.15234375 6.2265625 C23.66147243 8.35667727 30.02743656 11.12555589 34.90234375 18.7265625 C39.10530109 29.23395584 36.44044098 39.64514677 32.30859375 49.75 C27.8135435 60.123927 21.90042151 68.89665034 14.90234375 77.7265625 C14.14179688 78.71011719 13.38125 79.69367188 12.59765625 80.70703125 C9.24273736 84.99246538 5.78286844 88.90447944 1.90234375 92.7265625 C0.66097656 94.00273437 0.66097656 94.00273437 -0.60546875 95.3046875 C-6.768624 101.5966251 -13.19137862 107.24476603 -20.09765625 112.7265625 C-21.91165839 114.22474556 -23.72415341 115.72475527 -25.53515625 117.2265625 C-35.00370553 124.96010772 -44.79997379 132.1378707 -55.09765625 138.7265625 C-55.82033691 139.19046387 -56.54301758 139.65436523 -57.28759766 140.13232422 C-97.57442059 165.86358957 -147.97029737 193.38190091 -197.16015625 193.0390625 C-198.01577148 193.03414795 -198.87138672 193.0292334 -199.75292969 193.02416992 C-211.62596126 192.80533805 -220.81953732 190.1485743 -229.84765625 182.3515625 C-235.76495471 175.44804763 -237.49955277 168.78927179 -237.3671875 159.8125 C-235.62631657 139.88078931 -220.84812545 123.98002679 -207.09765625 110.7265625 C-206.09543156 109.72879215 -205.09451656 108.72969237 -204.09765625 107.7265625 C-203.10765625 108.2215625 -203.10765625 108.2215625 -202.09765625 108.7265625 C-205.30358813 113.07400042 -208.58466071 117.31982518 -212.03515625 121.4765625 C-219.81654068 131.22189099 -228.05145091 143.68771824 -227.03515625 156.7265625 C-226.35757637 160.29037206 -225.5464991 162.96173993 -223.09765625 165.7265625 C-209.9814821 174.4608094 -192.89659402 170.47129698 -178.47265625 167.64453125 C-152.36188078 162.23771315 -128.03114943 152.31079125 -104.09765625 140.7265625 C-103.19708496 140.29939941 -102.29651367 139.87223633 -101.36865234 139.43212891 C-79.16635824 128.89578763 -57.76983229 116.48203789 -38.09765625 101.7265625 C-37.52450684 101.30213867 -36.95135742 100.87771484 -36.36083984 100.44042969 C-28.15026262 94.34955338 -20.3815329 87.79498344 -12.67626953 81.08349609 C-11.1359528 79.75948119 -9.57197054 78.46975146 -8 77.18359375 C4.94824269 66.22202625 22.14945411 47.90157854 24.17578125 30.359375 C24.36039927 25.80073007 24.24613781 23.31745855 21.90234375 19.2890625 C17.61418123 15.62625701 13.57554814 13.95406926 7.96484375 13.4765625 C5.91320122 13.51007781 5.91320122 13.51007781 4.90234375 14.7265625 C3.38306337 14.79836214 1.86066893 14.81048257 0.33984375 14.7890625 C-0.48644531 14.78003906 -1.31273437 14.77101563 -2.1640625 14.76171875 C-2.80214844 14.75011719 -3.44023437 14.73851563 -4.09765625 14.7265625 C-5.08765625 12.7465625 -5.08765625 12.7465625 -6.09765625 10.7265625 C-8.04671875 10.9121875 -8.04671875 10.9121875 -10.03515625 11.1015625 C-10.76605469 11.17117187 -11.49695313 11.24078125 -12.25 11.3125 C-16.25254467 11.89448866 -20.15788964 12.81910735 -24.09765625 13.7265625 C-25.94783188 14.14490639 -27.79809563 14.56286075 -29.6484375 14.98046875 C-31.56906216 15.41643877 -33.48963455 15.85263916 -35.41015625 16.2890625 C-36.38533203 16.51013672 -37.36050781 16.73121094 -38.36523438 16.95898438 C-39.30431641 17.17232422 -40.24339844 17.38566406 -41.2109375 17.60546875 C-42.47611206 17.89272827 -42.47611206 17.89272827 -43.7668457 18.18579102 C-45.88339916 18.6768527 -47.99165807 19.19225004 -50.09765625 19.7265625 C-49.76765625 18.7365625 -49.43765625 17.7465625 -49.09765625 16.7265625 C-46.54141214 15.72253655 -44.10422148 14.90756177 -41.47265625 14.1640625 C-40.77269531 13.95587891 -40.07273438 13.74769531 -39.3515625 13.53320312 C-37.94387386 13.1166422 -36.53382349 12.70798347 -35.12158203 12.30712891 C-33.29790659 11.78400464 -31.48590473 11.22059028 -29.67578125 10.65234375 C-26.86299046 9.92458019 -24.29902459 9.4420192 -21.43359375 9.0859375 C-20.62148437 8.98410156 -19.809375 8.88226563 -18.97265625 8.77734375 C-17.30006191 8.57610974 -15.62541137 8.3913134 -13.94921875 8.22265625 C-9.61205017 7.64943174 -7.02153842 7.20747292 -4.265625 3.65625 C-2.09765625 0.7265625 -2.09765625 0.7265625 0 0 Z " fill="#188DD6" transform="translate(260.09765625,53.2734375)"/>
<path d="M0 0 C0.99 0.495 0.99 0.495 2 1 C2.50853739 9.98416049 0.30246306 17.57045586 -3.75 25.5625 C-6.13490975 30.4726083 -5.96242353 33.49306331 -5.09765625 38.765625 C-4.98249979 41.40040491 -5.39985721 42.44509026 -6.9375 44.5625 C-10.30570837 47.2433189 -11.69952735 47.14593466 -15.828125 47.35546875 C-20.76827461 48.82152034 -23.84315589 54.16432402 -27 58 C-28.39361204 59.52144337 -29.80878663 61.02356901 -31.25 62.5 C-31.85328125 63.1290625 -32.4565625 63.758125 -33.078125 64.40625 C-35.26227374 66.21749529 -37.36101778 67.00158325 -40 68 C-37.85562308 71.58420662 -35.70928168 75.16723326 -33.5625 78.75 C-32.89742432 79.86076904 -32.23234863 80.97153809 -31.54711914 82.1159668 C-27.86926491 88.25220094 -24.16831646 94.37324224 -20.4296875 100.47265625 C-19.67239573 101.71058205 -18.91515253 102.94853756 -18.15795898 104.18652344 C-17.06272114 105.97695561 -15.96598423 107.76635346 -14.86355591 109.55236816 C-0.25815581 133.21589039 -0.25815581 133.21589039 -1 142 C-1.83244924 145.44392306 -3.11005896 148.14467909 -5.70703125 150.640625 C-11.18124829 153.88598706 -17.95448967 153.14009899 -24 152 C-32.17487902 149.59432481 -39.98509018 146.10401852 -47.81445312 142.76806641 C-54.83693135 139.78512805 -61.92631393 136.96367044 -69.00186157 134.10964966 C-71.37691916 133.14949087 -73.74978002 132.1841246 -76.12182617 131.21655273 C-83.83227769 128.07330062 -91.5501868 124.98501671 -99.35253906 122.07519531 C-101.79987147 121.08127684 -104.01760472 119.92444569 -106.3125 118.625 C-108.82865338 117.76605339 -110.34577891 117.74397763 -112.82666016 118.71484375 C-117.08788551 120.8153183 -121.07456212 123.31550116 -125.07177734 125.8737793 C-126.98181142 126.98937656 -128.86017744 127.79702493 -130.921875 128.58984375 C-131.93765625 129.05519531 -132.9534375 129.52054688 -134 130 C-135.17138134 133.43315137 -135.17138134 133.43315137 -136 137 C-138.82608381 140.14906481 -140.3579224 140.90988385 -144.5625 141.5 C-148 141 -148 141 -150.375 139.4375 C-152.58331487 136.1250277 -153.06874509 133.98721529 -153 130 C-150.59965391 125.94941598 -149.1111568 124.32324561 -144.5625 123 C-141 123 -141 123 -138.328125 124.234375 C-133.43407149 125.36023707 -130.5217249 123.4817748 -126.1875 121.25 C-125.41212891 120.87617188 -124.63675781 120.50234375 -123.83789062 120.1171875 C-119.70201401 118.32936962 -119.70201401 118.32936962 -117 115 C-119.64 114.01 -122.28 113.02 -125 112 C-125 111.34 -125 110.68 -125 110 C-122.09399739 108.74335022 -120.20395416 108 -117 108 C-117 107.34 -117 106.68 -117 106 C-116.46632812 105.72325439 -115.93265625 105.44650879 -115.3828125 105.16137695 C-112.92009216 103.88181692 -110.46004721 102.59719132 -108 101.3125 C-107.16082031 100.87744141 -106.32164062 100.44238281 -105.45703125 99.99414062 C-100.70744713 97.50889312 -96.14963223 94.90888237 -91.7097168 91.90087891 C-88.65006117 90.28869424 -86.26536939 91.19704031 -83 92 C-80.6897833 92.36876698 -78.37702732 92.72183364 -76.0625 93.0625 C-74.04160994 93.37463296 -72.02075757 93.68701048 -70 94 C-71.32 93.01 -72.64 92.02 -74 91 C-73.34 91 -72.68 91 -72 91 C-72.31195313 90.46890625 -72.62390625 89.9378125 -72.9453125 89.390625 C-73.33460938 88.68421875 -73.72390625 87.9778125 -74.125 87.25 C-74.71667969 86.20585937 -74.71667969 86.20585937 -75.3203125 85.140625 C-76 83 -76 83 -75.515625 81.0546875 C-73.33298265 78.09574452 -70.54207595 76.05735594 -67.625 73.875 C-66.36064705 72.90929367 -65.09765246 71.94180663 -63.8359375 70.97265625 C-63.1975293 70.48297363 -62.55912109 69.99329102 -61.90136719 69.48876953 C-57.93898624 66.38622728 -54.14369077 63.08073952 -50.328125 59.80078125 C-48 58 -48 58 -46 58 C-44.68 60.31 -43.36 62.62 -42 65 C-38.8376284 63.62803835 -37.0063782 62.1434878 -34.8125 59.5 C-32.78748356 57.06468611 -30.76226938 54.7641354 -28.51171875 52.53125 C-23.89994434 48.32311382 -23.89994434 48.32311382 -21.79296875 42.76171875 C-22.15963167 40.83401568 -22.57776483 38.91629807 -23 37 C-21.00630927 33.26182988 -19.62685257 32.21618099 -15.61328125 30.83203125 C-11.07405919 28.94868657 -9.64746909 25.82437624 -7.6875 21.5 C-7.34702637 20.7889209 -7.00655273 20.0778418 -6.65576172 19.34521484 C-4.35425349 14.33923691 -2.93377019 9.54508379 -2.3515625 4.0390625 C-2 2 -2 2 0 0 Z " fill="#51BBE8" transform="translate(302,113)"/>
<path d="M0 0 C0 2.31 0 4.62 0 7 C3.465 6.505 3.465 6.505 7 6 C4.787704 8.46306664 2.786126 9.73072692 -0.25390625 11.015625 C-1.09937012 11.37624023 -1.94483398 11.73685547 -2.81591797 12.10839844 C-3.72229004 12.48512695 -4.62866211 12.86185547 -5.5625 13.25 C-6.49980957 13.64477539 -7.43711914 14.03955078 -8.40283203 14.44628906 C-26.55072676 22.04393784 -44.81672685 28.63692484 -63.76879883 33.94555664 C-71.93326403 35.95740295 -71.93326403 35.95740295 -79.375 39.625 C-83.23695429 41.64792844 -85.6526514 41.48303873 -90 41 C-92.5625 39.4375 -92.5625 39.4375 -94 37 C-94.25 33.5625 -94.25 33.5625 -93 30 C-90.57180898 27.86506877 -87.86865171 26.46495203 -85 25 C-80.44579176 22.57894605 -80.44579176 22.57894605 -76.375 19.47265625 C-72.73857385 17.2178328 -68.94684412 17.06435652 -64.75 16.5625 C-56.31991609 15.42338168 -48.22371099 13.80659261 -40.02587891 11.5546875 C-37.88942613 10.96972477 -35.74794977 10.406204 -33.60546875 9.84375 C-25.05165821 7.56537705 -16.69057751 4.96992788 -8.39282227 1.87939453 C-5.44804529 0.79344332 -3.16732393 0 0 0 Z " fill="#0675CD" transform="translate(136,245)"/>
<path d="M0 0 C0.66 0.33 1.32 0.66 2 1 C2.50853739 9.98416049 0.30246306 17.57045586 -3.75 25.5625 C-6.13490975 30.4726083 -5.96242353 33.49306331 -5.09765625 38.765625 C-4.98249979 41.40040491 -5.39985721 42.44509026 -6.9375 44.5625 C-10.30570837 47.2433189 -11.69952735 47.14593466 -15.828125 47.35546875 C-20.77030594 48.82212317 -23.83884418 54.16578832 -27 58 C-28.41552747 59.52075252 -29.85157142 61.02280877 -31.3125 62.5 C-31.92738281 63.1290625 -32.54226563 63.758125 -33.17578125 64.40625 C-35.60545458 66.52896246 -37.71960309 68 -41 68 C-41.92215044 69.3661488 -42.83707758 70.73773167 -43.71484375 72.1328125 C-46.1555793 75.67892676 -49.11793587 78.81029981 -52 82 C-54.31 81.34 -56.62 80.68 -59 80 C-58.375 77.6875 -58.375 77.6875 -57 75 C-55.03696582 73.92925408 -53.0302589 72.93704257 -51 72 C-49.89191913 71.13496517 -48.80793346 70.23819178 -47.75 69.3125 C-45 67 -45 67 -43 67 C-42.67 66.34 -42.34 65.68 -42 65 C-41.38511719 64.7009375 -40.77023437 64.401875 -40.13671875 64.09375 C-37.72040942 62.85688234 -36.5395357 61.58097141 -34.8125 59.5 C-32.78748356 57.06468611 -30.76226938 54.7641354 -28.51171875 52.53125 C-23.89994434 48.32311382 -23.89994434 48.32311382 -21.79296875 42.76171875 C-22.15963167 40.83401568 -22.57776483 38.91629807 -23 37 C-21.00630927 33.26182988 -19.62685257 32.21618099 -15.61328125 30.83203125 C-11.07405919 28.94868657 -9.64746909 25.82437624 -7.6875 21.5 C-7.34702637 20.7889209 -7.00655273 20.0778418 -6.65576172 19.34521484 C-4.35425349 14.33923691 -2.93377019 9.54508379 -2.3515625 4.0390625 C-2 2 -2 2 0 0 Z " fill="#3DB0E2" transform="translate(302,113)"/>
<path d="M0 0 C0.99 0.33 1.98 0.66 3 1 C2.67 1.66 2.34 2.32 2 3 C2.94875 3.061875 3.8975 3.12375 4.875 3.1875 C5.90625 3.455625 6.9375 3.72375 8 4 C9.375 6.5625 9.375 6.5625 10 9 C10 8.34 10 7.68 10 7 C12.3431213 7.25561323 14.67843403 7.59270772 17 8 C17.495 8.99 17.495 8.99 18 10 C17.17371094 9.74734375 16.34742188 9.4946875 15.49609375 9.234375 C10.65626718 8.90991735 8.08249371 10.74748736 4.0625 13.25 C2.70128022 14.07113543 1.33801233 14.88888581 -0.02734375 15.703125 C-0.68605469 16.10007568 -1.34476563 16.49702637 -2.0234375 16.90600586 C-3.95637032 17.97585171 -5.8744027 18.78851629 -7.93359375 19.58203125 C-9.45146484 20.28392578 -9.45146484 20.28392578 -11 21 C-12.17138134 24.43315137 -12.17138134 24.43315137 -13 28 C-15.82608381 31.14906481 -17.3579224 31.90988385 -21.5625 32.5 C-25 32 -25 32 -27.375 30.4375 C-29.58331487 27.1250277 -30.06874509 24.98721529 -30 21 C-27.59965391 16.94941598 -26.1111568 15.32324561 -21.5625 14 C-18 14 -18 14 -15.328125 15.234375 C-10.43407149 16.36023707 -7.5217249 14.4817748 -3.1875 12.25 C-2.02444336 11.68925781 -2.02444336 11.68925781 -0.83789062 11.1171875 C3.29798599 9.32936962 3.29798599 9.32936962 6 6 C3.36 5.01 0.72 4.02 -2 3 C-2 2.34 -2 1.68 -2 1 C-1.34 0.67 -0.68 0.34 0 0 Z " fill="#138AD4" transform="translate(179,222)"/>
<path d="M0 0 C0 0.66 0 1.32 0 2 C-1.31005859 3.20166016 -1.31005859 3.20166016 -3.1484375 4.5390625 C-3.81979736 5.0335791 -4.49115723 5.5280957 -5.18286133 6.03759766 C-6.26796997 6.82336182 -6.26796997 6.82336182 -7.375 7.625 C-8.84600097 8.70704454 -10.31605358 9.79037951 -11.78515625 10.875 C-12.50590332 11.40609375 -13.22665039 11.9371875 -13.96923828 12.484375 C-17.41574898 15.05662054 -20.74987826 17.75807624 -24.08203125 20.4765625 C-26 22 -26 22 -29 24 C-29.61135497 26.09272116 -29.61135497 26.09272116 -29.875 28.4375 C-30.71945443 32.74283322 -30.71945443 32.74283322 -33.25 35.0625 C-36.47335151 36.16136983 -38.62063244 36.50331006 -42 36 C-44.375 34.4375 -44.375 34.4375 -46 32 C-46.625 28.5625 -46.625 28.5625 -46 25 C-43.87953471 22.50845328 -42.85050901 21.30622897 -40 20 C-38.07526027 20.09786812 -36.15054952 20.19690162 -34.2265625 20.30859375 C-30.2165898 19.7528256 -27.53435825 17.02239151 -24.421875 14.578125 C-20.12762571 11.2499491 -15.52884259 8.39617679 -10.9375 5.5 C-10.09147217 4.95956055 -9.24544434 4.41912109 -8.3737793 3.86230469 C-7.57883057 3.36118164 -6.78388184 2.86005859 -5.96484375 2.34375 C-5.2493335 1.89193359 -4.53382324 1.44011719 -3.79663086 0.97460938 C-2 0 -2 0 0 0 Z " fill="#0D83D6" transform="translate(102,119)"/>
<path d="M0 0 C0.33 0.66 0.66 1.32 1 2 C-0.29174805 4.70214844 -0.29174805 4.70214844 -2.26171875 8.109375 C-2.60878372 8.71380432 -2.95584869 9.31823364 -3.31343079 9.940979 C-4.43066096 11.88173492 -5.55915295 13.81569078 -6.6875 15.75 C-7.429728 17.03866444 -8.17127284 18.32772262 -8.91210938 19.6171875 C-18.85658324 36.8490509 -18.85658324 36.8490509 -25.25 38.625 C-25.8275 38.74875 -26.405 38.8725 -27 39 C-26.21179509 32.41505135 -23.36047398 27.46699843 -20.21777344 21.71362305 C-19.25431862 19.94542582 -18.31002886 18.16792855 -17.3671875 16.38867188 C-16.45066406 14.69387695 -16.45066406 14.69387695 -15.515625 12.96484375 C-14.68466309 11.42751587 -14.68466309 11.42751587 -13.83691406 9.85913086 C-11.85560263 6.77524753 -9.74283643 4.42573425 -7 2 C-6.34 2 -5.68 2 -5 2 C-5 2.66 -5 3.32 -5 4 C-1.72226496 3.24849977 -1.72226496 3.24849977 0 0 Z " fill="#80D1F4" transform="translate(131,108)"/>
<path d="M0 0 C3 5.625 3 5.625 3 9 C-1.0175869 12.91561769 -5.94700501 15.64976977 -11 18 C-11.99 18.66 -12.98 19.32 -14 20 C-17.1875 20.125 -17.1875 20.125 -20 20 C-17.05642669 13.62225782 -13.28191324 8.97947271 -7.875 4.625 C-7.33746094 4.17511719 -6.79992187 3.72523438 -6.24609375 3.26171875 C-2.27056421 0 -2.27056421 0 0 0 Z " fill="#5CC7EA" transform="translate(256,171)"/>
<path d="M0 0 C0.66 0.33 1.32 0.66 2 1 C2.65635112 12.59553638 -1.57626408 21.94239261 -7 32 C-7.99 32 -8.98 32 -10 32 C-10.70703125 30.44140625 -10.70703125 30.44140625 -11 28 C-9.9818994 25.5466401 -8.91411698 23.28099804 -7.6875 20.9375 C-4.89310664 15.34529799 -3.10875244 10.34747251 -2.38671875 4.07421875 C-2 2 -2 2 0 0 Z " fill="#66C8E8" transform="translate(302,113)"/>
<path d="M0 0 C0.495 0.99 0.495 0.99 1 2 C0.0625 4.625 0.0625 4.625 -1 7 C-4.07617188 7.29296875 -4.07617188 7.29296875 -7.15234375 7.5859375 C-11.15488842 8.16792616 -15.06023339 9.09254485 -19 10 C-20.85017563 10.41834389 -22.70043938 10.83629825 -24.55078125 11.25390625 C-26.47140591 11.68987627 -28.3919783 12.12607666 -30.3125 12.5625 C-31.28767578 12.78357422 -32.26285156 13.00464844 -33.26757812 13.23242188 C-34.20666016 13.44576172 -35.14574219 13.65910156 -36.11328125 13.87890625 C-36.95673096 14.0704126 -37.80018066 14.26191895 -38.66918945 14.45922852 C-40.78574291 14.9502902 -42.89400182 15.46568754 -45 16 C-44.67 15.01 -44.34 14.02 -44 13 C-41.44375589 11.99597405 -39.00656523 11.18099927 -36.375 10.4375 C-35.67503906 10.22931641 -34.97507813 10.02113281 -34.25390625 9.80664062 C-32.84592758 9.38999388 -31.43563418 8.98109374 -30.02319336 8.57983398 C-28.20436864 8.05857071 -26.39624194 7.50031822 -24.58984375 6.9375 C-19.32384601 5.56226664 -13.98163899 4.91727798 -8.58789062 4.23242188 C-7.76869141 4.11576172 -6.94949219 3.99910156 -6.10546875 3.87890625 C-5.36449951 3.7816626 -4.62353027 3.68441895 -3.86010742 3.58422852 C-1.60693758 3.09030678 -1.60693758 3.09030678 0 0 Z " fill="#46A9C8" transform="translate(255,57)"/>
<path d="M0 0 C0 0.66 0 1.32 0 2 C-1.31005859 3.20166016 -1.31005859 3.20166016 -3.1484375 4.5390625 C-3.8197168 5.0335791 -4.49099609 5.5280957 -5.18261719 6.03759766 C-5.90610352 6.56144043 -6.62958984 7.0852832 -7.375 7.625 C-8.84735974 8.70696626 -10.31871469 9.79030119 -11.7890625 10.875 C-12.5099707 11.40609375 -13.23087891 11.9371875 -13.97363281 12.484375 C-17.39663834 15.04461817 -20.69319475 17.74925579 -23.984375 20.4765625 C-25.91927626 21.93898787 -27.79730468 22.99787285 -30 24 C-30.33 22.35 -30.66 20.7 -31 19 C-27.66797993 16.76886563 -24.33414534 14.54045693 -21 12.3125 C-20.06542969 11.68666016 -19.13085938 11.06082031 -18.16796875 10.41601562 C-2.57121237 0 -2.57121237 0 0 0 Z " fill="#157EC7" transform="translate(102,119)"/>
<path d="M0 0 C0.99 0.33 1.98 0.66 3 1 C2.67 1.66 2.34 2.32 2 3 C2.94875 3.061875 3.8975 3.12375 4.875 3.1875 C5.90625 3.455625 6.9375 3.72375 8 4 C9.375 6.5625 9.375 6.5625 10 9 C10 8.34 10 7.68 10 7 C12.3431213 7.25561323 14.67843403 7.59270772 17 8 C17.33 8.66 17.66 9.32 18 10 C17.18273437 9.74347656 16.36546875 9.48695313 15.5234375 9.22265625 C10.56065638 8.9090437 7.76477507 10.89599252 3.625 13.4375 C2.88894531 13.87126953 2.15289062 14.30503906 1.39453125 14.75195312 C-0.41252088 15.81975665 -2.20752198 16.90790828 -4 18 C-4.66 17.34 -5.32 16.68 -6 16 C-6.66 16.33 -7.32 16.66 -8 17 C-8.66 16.34 -9.32 15.68 -10 15 C-4.72 12.36 0.56 9.72 6 7 C3.33440687 5.22293791 0.9719385 4.12451727 -2 3 C-2 2.34 -2 1.68 -2 1 C-1.34 0.67 -0.68 0.34 0 0 Z " fill="#1981C3" transform="translate(179,222)"/>
<path d="M0 0 C-0.49871064 4.45673159 -2.02004362 6.57687178 -5.0625 9.8125 C-6.16271484 10.99779297 -6.16271484 10.99779297 -7.28515625 12.20703125 C-8.13400391 13.09455078 -8.13400391 13.09455078 -9 14 C-11.31 13.34 -13.62 12.68 -16 12 C-15.375 9.6875 -15.375 9.6875 -14 7 C-11.1875 5.4375 -11.1875 5.4375 -8 4 C-7.113125 3.278125 -6.22625 2.55625 -5.3125 1.8125 C-3 0 -3 0 0 0 Z " fill="#2399DC" transform="translate(259,181)"/>
<path d="M0 0 C2.125 0.375 2.125 0.375 4 1 C2.5466378 4.34123474 0.70404484 6.56541965 -1.875 9.125 C-2.55304688 9.80820313 -3.23109375 10.49140625 -3.9296875 11.1953125 C-6.46075879 13.40164257 -8.57734979 15 -12 15 C-12.66 15.66 -13.32 16.32 -14 17 C-14 16.34 -14 15.68 -14 15 C-14.66 14.67 -15.32 14.34 -16 14 C-15.34 14 -14.68 14 -14 14 C-13.67 13.34 -13.34 12.68 -13 12 C-12.39414062 11.71125 -11.78828125 11.4225 -11.1640625 11.125 C-8.58505951 9.78429087 -7.23132949 8.22432432 -5.375 6 C-3.6266832 3.92339664 -1.92037235 1.92037235 0 0 Z " fill="#46ADD7" transform="translate(273,166)"/>
<path d="M0 0 C0.66 0.33 1.32 0.66 2 1 C-2 6.33333333 -6 11.66666667 -10 17 C-11.65 16.67 -13.3 16.34 -15 16 C-11.18913054 11.33168492 -7.26922468 7.33647845 -2.63671875 3.48046875 C-0.88811115 2.07899285 -0.88811115 2.07899285 0 0 Z " fill="#1685CB" transform="translate(56,161)"/>
<path d="M0 0 C1.32 0.66 2.64 1.32 4 2 C0.37 4.97 -3.26 7.94 -7 11 C-7.66 9.68 -8.32 8.36 -9 7 C-6.26094477 4.05805179 -3.69134924 1.66110716 0 0 Z " fill="#1789D3" transform="translate(80,132)"/>
<path d="M0 0 C0.66 0.33 1.32 0.66 2 1 C2.21824777 7.0018137 1.5056904 12.19233704 0 18 C-1.0625 16.125 -1.0625 16.125 -2 14 C-1.67 13.34 -1.34 12.68 -1 12 C-1.66 12 -2.32 12 -3 12 C-2.88601335 10.37419034 -2.75844341 8.74932843 -2.625 7.125 C-2.55539062 6.22007813 -2.48578125 5.31515625 -2.4140625 4.3828125 C-2 2 -2 2 0 0 Z " fill="#5FC6E2" transform="translate(302,113)"/>
<path d="M0 0 C-1.20381448 2.49361571 -2.45428722 4.68143083 -4 7 C-5.33076989 7.34342449 -6.66431979 7.67619874 -8 8 C-9.91666667 9.08333333 -9.91666667 9.08333333 -11 11 C-10.76716851 14.14921909 -10.76716851 14.14921909 -10 17 C-12.54106009 14.79038253 -13.30621489 13.26011642 -14 10 C-12.75160501 8.894019 -11.50120766 7.79029799 -10.25 6.6875 C-9.55390625 6.07261719 -8.8578125 5.45773438 -8.140625 4.82421875 C-2.47965739 0 -2.47965739 0 0 0 Z " fill="#3BACDC" transform="translate(240,184)"/>
<path d="M0 0 C0.33 0.66 0.66 1.32 1 2 C0.34 3.65 -0.32 5.3 -1 7 C-5.95 7.33 -10.9 7.66 -16 8 C-16.33 7.34 -16.66 6.68 -17 6 C-15.94039062 5.81824219 -14.88078125 5.63648438 -13.7890625 5.44921875 C-12.40092035 5.1959766 -11.01290588 4.94203383 -9.625 4.6875 C-8.92632812 4.56955078 -8.22765625 4.45160156 -7.5078125 4.33007812 C-5.65144974 3.98201011 -3.82201946 3.49747273 -2 3 C-1.34 2.01 -0.68 1.02 0 0 Z " fill="#62D0EF" transform="translate(255,57)"/>
<path d="M0 0 C0.66 0.99 1.32 1.98 2 3 C4.05003955 4.19232613 4.05003955 4.19232613 6 5 C4.08187166 6.91812834 2.25536995 8.49642003 0 10 C-0.99 10 -1.98 10 -3 10 C-2.49287967 6.28111761 -1.88391785 3.26545761 0 0 Z " fill="#61B9E7" transform="translate(107,137)"/>
<path d="M0 0 C-5.38490641 0.91657981 -10.54230189 1.11138159 -16 1 C-16 0.34 -16 -0.32 -16 -1 C-9.58464538 -3.13845154 -5.89830388 -3.27683549 0 0 Z " fill="#56B8D3" transform="translate(243,66)"/>
<path d="M0 0 C0.99 0 1.98 0 3 0 C3 2.31 3 4.62 3 7 C6.465 6.505 6.465 6.505 10 6 C7.47043472 9.0916909 4.77545388 9.90931332 1 11 C1 7.58900832 1.49145406 4.36911686 2 1 C1.34 0.67 0.68 0.34 0 0 Z " fill="#176EAC" transform="translate(133,245)"/>
<path d="M0 0 C0.33 0.99 0.66 1.98 1 3 C-2.3 6.3 -5.6 9.6 -9 13 C-9.66 12.67 -10.32 12.34 -11 12 C-8.22095576 8.39753524 -5.25893558 5.17317412 -2 2 C-1.34 1.34 -0.68 0.68 0 0 Z " fill="#2298D3" transform="translate(264,118)"/>
<path d="M0 0 C0.66 0.33 1.32 0.66 2 1 C-1.63 4.3 -5.26 7.6 -9 11 C-9.33 10.01 -9.66 9.02 -10 8 C-6.7 5.36 -3.4 2.72 0 0 Z " fill="#239ED9" transform="translate(240,141)"/>
<path d="M0 0 C0.33 0.99 0.66 1.98 1 3 C-2 5 -2 5 -4.0625 4.75 C-6 4 -6 4 -8 2 C-6.865625 1.855625 -5.73125 1.71125 -4.5625 1.5625 C-1.19222799 1.38828522 -1.19222799 1.38828522 0 0 Z " fill="#208ED2" transform="translate(173,237)"/>
<path d="M0 0 C0.33 0.66 0.66 1.32 1 2 C-0.4375 4.625 -0.4375 4.625 -2 7 C-2.763125 6.690625 -3.52625 6.38125 -4.3125 6.0625 C-6.18789677 5.32106407 -8.08684652 4.63771783 -10 4 C-8.35 3.34 -6.7 2.68 -5 2 C-5 2.66 -5 3.32 -5 4 C-1.72226496 3.24849977 -1.72226496 3.24849977 0 0 Z " fill="#5CC2F1" transform="translate(131,108)"/>
<path d="M0 0 C-1.20381448 2.49361571 -2.45428722 4.68143083 -4 7 C-5.32 7 -6.64 7 -8 7 C-6.47663111 3.31852519 -4.31953005 0 0 0 Z " fill="#43B3DF" transform="translate(240,184)"/>
<path d="M0 0 C0.66 1.32 1.32 2.64 2 4 C1.01 4.99 0.02 5.98 -1 7 C-2.32 6.34 -3.64 5.68 -5 5 C-3.35 3.35 -1.7 1.7 0 0 Z " fill="#0F76C2" transform="translate(46,171)"/>
<path d="M0 0 C1.258125 -0.04125 2.51625 -0.0825 3.8125 -0.125 C4.52019531 -0.14820313 5.22789062 -0.17140625 5.95703125 -0.1953125 C8 0 8 0 11 2 C10.67 2.66 10.34 3.32 10 4 C9.46375 3.649375 8.9275 3.29875 8.375 2.9375 C5.26725237 1.71075751 3.20568297 2.27143569 0 3 C0 2.01 0 1.02 0 0 Z " fill="#49C3EA" transform="translate(258,54)"/>
<path d="M0 0 C0 0.66 0 1.32 0 2 C-1.4609375 3.2890625 -1.4609375 3.2890625 -3.375 4.625 C-4.00148438 5.07101563 -4.62796875 5.51703125 -5.2734375 5.9765625 C-7 7 -7 7 -9 7 C-7.4576387 2.93377477 -4.5679954 0 0 0 Z " fill="#228DCB" transform="translate(102,119)"/>
<path d="M0 0 C-0.7734375 0.3403125 -0.7734375 0.3403125 -1.5625 0.6875 C-4.92403127 2.4975553 -7.92911144 4.73996404 -11 7 C-10.45624909 4.39430258 -10.20136577 3.20882376 -8.3125 1.25 C-5.39572708 -0.32663401 -3.26709987 -0.22275681 0 0 Z " fill="#42B1DE" transform="translate(167,49)"/>
<path d="M0 0 C0.66 0.33 1.32 0.66 2 1 C1.2884375 1.5878125 1.2884375 1.5878125 0.5625 2.1875 C-1.35179633 4.40808374 -1.61266988 6.13375709 -2 9 C-2.66 9 -3.32 9 -4 9 C-3.6875 5.625 -3.6875 5.625 -3 2 C-2.01 1.34 -1.02 0.68 0 0 Z " fill="#0E6BB9" transform="translate(46,273)"/>
<path d="M0 0 C0.66 0.33 1.32 0.66 2 1 C2 1.99 2 2.98 2 4 C-1.75 5.125 -1.75 5.125 -4 4 C-4 3.34 -4 2.68 -4 2 C-2.125 0.9375 -2.125 0.9375 0 0 Z " fill="#1D8FD7" transform="translate(184,230)"/>
<path d="M0 0 C0.33 0.66 0.66 1.32 1 2 C-3.62 1.34 -8.24 0.68 -13 0 C-13 -0.33 -13 -0.66 -13 -1 C-4.29841489 -2.47484493 -4.29841489 -2.47484493 0 0 Z " fill="#27516A" transform="translate(232,206)"/>
<path d="M0 0 C0.66 0.33 1.32 0.66 2 1 C0.90716423 2.03295436 -0.19970579 3.05107835 -1.3125 4.0625 C-1.92738281 4.63097656 -2.54226562 5.19945312 -3.17578125 5.78515625 C-3.77777344 6.18605469 -4.37976563 6.58695313 -5 7 C-5.99 6.67 -6.98 6.34 -8 6 C-5.36 4.02 -2.72 2.04 0 0 Z " fill="#269FDB" transform="translate(225,153)"/>
<path d="M0 0 C0.66 0.33 1.32 0.66 2 1 C2 3.64 2 6.28 2 9 C1.34 7.68 0.68 6.36 0 5 C-0.66 5.66 -1.32 6.32 -2 7 C-2.125 4.625 -2.125 4.625 -2 2 C-1.34 1.34 -0.68 0.68 0 0 Z " fill="#4EA3BF" transform="translate(302,113)"/>
<path d="M0 0 C-3.0469629 1.69433918 -5.82821466 2.49467112 -9.25 3.125 C-10.58804688 3.37636719 -10.58804688 3.37636719 -11.953125 3.6328125 C-12.62859375 3.75398437 -13.3040625 3.87515625 -14 4 C-13.67 3.01 -13.34 2.02 -13 1 C-8.62426048 0.40667939 -4.42471556 -0.13827236 0 0 Z " fill="#0863B5" transform="translate(103,198)"/>
<path d="M0 0 C-3.20336822 2.83374881 -5.78087253 3.5205537 -10 4 C-6.66064924 0.50886057 -4.84725717 -0.1275594 0 0 Z " fill="#1997D3" transform="translate(217,204)"/>
<path d="M0 0 C1 3 1 3 -0.4375 6.1875 C-1.2109375 7.5796875 -1.2109375 7.5796875 -2 9 C-2.33 9 -2.66 9 -3 9 C-2.25 2.25 -2.25 2.25 0 0 Z " fill="#2895CC" transform="translate(282,146)"/>
<path d="M0 0 C0.99 0.33 1.98 0.66 3 1 C1.02 3.31 -0.96 5.62 -3 8 C-3 4.42424104 -1.91159393 2.94704065 0 0 Z " fill="#239ED0" transform="translate(279,98)"/>
</svg>
