<?xml version="1.0" encoding="UTF-8"?>
<svg version="1.1" xmlns="http://www.w3.org/2000/svg" width="348" height="289">
<path d="M0 0 C3.35681061 3.14435424 5.54153872 6.90632209 7.79882812 10.88378906 C9.02027699 13.03095566 10.27126681 15.15966985 11.5234375 17.2890625 C17.67159061 27.78925568 23.54412367 38.41861248 29.2890625 49.14453125 C29.87429687 50.23701172 30.45953125 51.32949219 31.0625 52.45507812 C32.25683404 54.68597938 33.44953859 56.91775376 34.640625 59.15039062 C37.3681001 64.23587007 40.13470132 69.25536695 43.1640625 74.16796875 C45.26099603 77.59820252 46.82027998 80.81550144 47.8515625 84.734375 C38.6373056 90.66235449 29.39743091 96.55621007 19.9140625 102.046875 C19.25921875 102.43738037 18.604375 102.82788574 17.9296875 103.23022461 C13.44808336 105.77825244 13.44808336 105.77825244 10.79370117 105.58300781 C8.1508359 104.42818699 7.72629173 103.21383834 6.5546875 100.60546875 C6.15733398 99.74300537 5.75998047 98.88054199 5.35058594 97.99194336 C4.9384082 97.0613208 4.52623047 96.13069824 4.1015625 95.171875 C3.21747132 93.24418321 2.33204071 91.31710519 1.4453125 89.390625 C1.00832031 88.4315625 0.57132812 87.4725 0.12109375 86.484375 C-1.63877062 82.67223803 -3.50325814 78.91814899 -5.3984375 75.171875 C-5.71973633 74.5337085 -6.04103516 73.89554199 -6.37207031 73.23803711 C-6.99404951 72.00320663 -7.6167464 70.76873733 -8.24023438 69.53466797 C-9.71797875 66.60539726 -11.18254152 63.66959195 -12.6484375 60.734375 C-13.133125 59.765 -13.6178125 58.795625 -14.1171875 57.796875 C-14.4575 57.11625 -14.7978125 56.435625 -15.1484375 55.734375 C-16.83218002 58.25998878 -17.98861209 60.46992263 -19.1875 63.23046875 C-19.59524658 64.1639917 -20.00299316 65.09751465 -20.4230957 66.05932617 C-20.8687085 67.08646729 -21.31432129 68.1136084 -21.7734375 69.171875 C-22.75835124 71.42741681 -23.74407923 73.68260318 -24.73046875 75.9375 C-24.99580917 76.54458298 -25.2611496 77.15166595 -25.53453064 77.77714539 C-27.7450084 82.82862161 -29.98013392 87.86892735 -32.22265625 92.90625 C-32.572677 93.69254288 -32.92269775 94.47883575 -33.2833252 95.28895569 C-34.68286894 98.43184677 -36.08297091 101.57448739 -37.48443604 104.71652222 C-38.47353291 106.93434128 -39.46146928 109.15267432 -40.44921875 111.37109375 C-40.76475708 112.07785751 -41.08029541 112.78462128 -41.40539551 113.51280212 C-42.92765529 116.93439088 -44.42133328 120.3638215 -45.85693359 123.82275391 C-46.1253154 124.46581985 -46.3936972 125.1088858 -46.67021179 125.7714386 C-47.39099259 127.50748195 -48.10246681 129.2473811 -48.81323242 130.98754883 C-50.58450345 134.63146368 -51.76759075 136.21085953 -55.57421875 137.65405273 C-56.52683594 137.90614502 -57.47945312 138.1582373 -58.4609375 138.41796875 C-59.52812012 138.70414063 -60.59530273 138.9903125 -61.69482422 139.28515625 C-62.8345166 139.57777344 -63.97420898 139.87039062 -65.1484375 140.171875 C-66.31004395 140.47609375 -67.47165039 140.7803125 -68.66845703 141.09375 C-75.75929788 142.9271678 -82.86733656 144.67396326 -90.0234375 146.234375 C-90.79429688 146.40638428 -91.56515625 146.57839355 -92.359375 146.75561523 C-95.99416276 147.50998185 -98.60269829 147.80073336 -102.1484375 146.734375 C-101.45186035 145.34992188 -101.45186035 145.34992188 -100.74121094 143.9375 C-96.96257571 136.41211263 -93.22351081 128.86884734 -89.5390625 121.296875 C-89.13362213 120.46379318 -88.72818176 119.63071136 -88.31045532 118.77238464 C-87.45403653 117.01244267 -86.59764273 115.25248854 -85.74127197 113.49252319 C-73.04569269 87.41612302 -60.07065077 61.48196603 -47.06787109 35.55786133 C-44.23091491 29.90103767 -41.40013048 24.24114322 -38.57669067 18.57756042 C-33.68367375 8.77561927 -29.23036226 -0.13819177 -18.140625 -3.95703125 C-11.67604064 -4.95840804 -5.34390644 -3.78970258 0 0 Z " fill="#01A6FC" transform="translate(183.1484375,40.265625)"/>
<path d="M0 0 C1.41732422 0.29003906 1.41732422 0.29003906 2.86328125 0.5859375 C9.6077132 2.0137749 14.51758674 3.58429835 19 9 C23.19456207 15.85111806 23.72033395 22.56717571 22.44140625 30.4375 C18.81424162 45.13960729 11.47352665 56.13928197 1 67 C-0.15352672 68.32668305 -1.29975787 69.65975575 -2.4375 71 C-9.92098291 79.55009426 -18.13170658 86.92543495 -27 94 C-28.25876953 95.05960938 -28.25876953 95.05960938 -29.54296875 96.140625 C-51.8192206 114.87828919 -77.07229675 129.01212911 -103 142 C-104.35560628 142.69504432 -105.71110086 143.39030663 -107.06640625 144.0859375 C-124.58032245 152.73127736 -144.01345578 159.37730268 -163 164 C-163.78342773 164.19319824 -164.56685547 164.38639648 -165.37402344 164.58544922 C-176.98787029 167.33727947 -188.31693409 168.37328687 -200.25 168.4375 C-202.06999512 168.4526062 -202.06999512 168.4526062 -203.92675781 168.46801758 C-215.11348575 168.35881454 -225.10357486 166.12020256 -234 159 C-241.07659582 150.6028224 -241.88068729 142.66260684 -241 132 C-237.65950146 118.34826872 -227.4783824 106.03594045 -217.93359375 96.07421875 C-215.95723992 94.1501187 -215.95723992 94.1501187 -215 92 C-214.34 92 -213.68 92 -213 92 C-212.731875 91.4225 -212.46375 90.845 -212.1875 90.25 C-211 88 -211 88 -209.484375 86.171875 C-207.78762824 83.68926659 -207.4638534 81.95829024 -207.0625 79 C-206.49549862 75.91551249 -206.1015045 74.15616077 -204.375 71.5 C-201.11184868 69.43906233 -197.84678224 68.36533686 -194 68 C-193.26072266 68.22059082 -192.52144531 68.44118164 -191.75976562 68.66845703 C-187.96293215 69.12458759 -186.09465793 67.9015827 -182.74609375 66.10546875 C-181.87199608 65.64434441 -181.87199608 65.64434441 -180.98023987 65.17390442 C-179.12530932 64.19156437 -177.28155287 63.19008483 -175.4375 62.1875 C-174.19405671 61.52408196 -172.94992189 60.86195831 -171.70507812 60.20117188 C-169.41660366 58.98476725 -167.13368644 57.75968765 -164.85327148 56.52807617 C-163.16712081 55.62505426 -161.46764624 54.74513571 -159.74243164 53.91918945 C-157.81522387 53.01221688 -157.81522387 53.01221688 -156 51 C-153.875 50.375 -153.875 50.375 -152 50 C-152.234375 52.35546875 -152.234375 52.35546875 -153 55 C-154.828125 56.30078125 -154.828125 56.30078125 -157.25 57.3125 C-161.72095845 59.34416564 -165.88660872 61.61838885 -170.0625 64.1875 C-171.16722656 64.86167969 -172.27195312 65.53585938 -173.41015625 66.23046875 C-176.07391881 67.74266238 -176.07391881 67.74266238 -177 70 C-182.42307692 73 -182.42307692 73 -185 73 C-184.89300781 73.66386719 -184.78601563 74.32773438 -184.67578125 75.01171875 C-183.69400667 82.24306914 -183.69400667 82.24306914 -185.1875 85.9375 C-187.0321914 88.03663159 -188.63320534 89.51595578 -191 91 C-193.15625 91.01953125 -193.15625 91.01953125 -195.5 90.8125 C-200.29478942 91.16609804 -202.45973424 92.95798741 -205.58276367 96.36254883 C-213.90904293 106.21515884 -222.43022618 117.3992255 -222.2109375 130.75390625 C-221.7631447 135.52207033 -219.94687517 138.18839271 -216.375 141.25 C-197.33927123 151.12037788 -169.0793248 141.72557281 -150 136 C-105.13161561 121.42175277 -62.43004377 99.7032921 -24.8125 71.1875 C-24.12986084 70.67268066 -23.44722168 70.15786133 -22.74389648 69.62744141 C-18.13237908 66.07257563 -14.04424523 62.18175088 -10 58 C-9.175 57.195625 -8.35 56.39125 -7.5 55.5625 C0.48821887 47.37457566 8.32894522 38.69738349 10 27 C9.91483606 22.33146782 9.59457925 17.99295638 7 14 C3.40224282 11.78241691 -0.41315899 10.77636723 -4.60546875 11.3671875 C-6.30410689 11.78349518 -8.0008172 12.20776327 -9.6953125 12.640625 C-13.18642738 13.18500224 -15.20399369 12.00738915 -18 10 C-18.33 9.34 -18.66 8.68 -19 8 C-19.66 8.33 -20.32 8.66 -21 9 C-23.67256215 9.02087939 -26.32894647 8.9933039 -29 8.9375 C-36.39419746 8.84759183 -43.56652433 9.33044715 -50.89648438 10.28881836 C-55.31146716 10.86005517 -59.54649452 11.09338937 -64 11 C-63 9 -63 9 -61.24438477 8.26977539 C-60.48440186 8.04797607 -59.72441895 7.82617676 -58.94140625 7.59765625 C-58.08885254 7.34854492 -57.23629883 7.09943359 -56.35791016 6.84277344 C-55.4354248 6.5852832 -54.51293945 6.32779297 -53.5625 6.0625 C-52.62196777 5.79598633 -51.68143555 5.52947266 -50.71240234 5.25488281 C-43.16252666 3.18047608 -35.62556343 1.75273734 -27.8828125 0.640625 C-8.60682535 -2.53971896 -8.60682535 -2.53971896 0 0 Z " fill="#019BFB" transform="translate(271,51)"/>
<path d="M0 0 C0.99 0.33 1.98 0.66 3 1 C3.12375 1.969375 3.2475 2.93875 3.375 3.9375 C3.58125 4.948125 3.7875 5.95875 4 7 C4.99 7.495 4.99 7.495 6 8 C7.39417392 22.32807658 5.91294406 32.18632009 -0.01171875 45.46875 C-1.18184731 48.01286943 -1.18184731 48.01286943 -1 51 C-0.484375 51.886875 0.03125 52.77375 0.5625 53.6875 C2.50266726 58.15832021 2.06922318 60.26486877 1 65 C-0.0625 67.4375 -0.0625 67.4375 -2 69 C-5.97725441 70.04620888 -9.07788392 70.30737203 -13 69 C-13.23589844 69.71929687 -13.47179687 70.43859375 -13.71484375 71.1796875 C-15.21648986 74.47509326 -17.06553097 76.50689475 -19.5625 79.125 C-26.08939655 86.11473003 -32.03107356 93.53215032 -38 101 C-31.46150625 113.10111906 -24.85804274 125.1525052 -17.92285156 137.03198242 C-10.04550102 150.63672216 -10.04550102 150.63672216 -11 158 C-13.36542293 161.94237155 -15.54353587 163.85997429 -20 165 C-25.27862031 165.29347973 -29.33169369 164.51244392 -34.328125 162.83203125 C-35.0228038 162.6007251 -35.7174826 162.36941895 -36.43321228 162.13110352 C-38.70929844 161.36909995 -40.97957257 160.59118596 -43.25 159.8125 C-44.8414187 159.27588814 -46.43297366 158.73968022 -48.0246582 158.20385742 C-56.34679908 155.38344553 -64.61486698 152.43602283 -72.83984375 149.34375 C-74.02542374 148.89850227 -74.02542374 148.89850227 -75.23495483 148.44425964 C-79.0271187 147.01589018 -82.81216434 145.57154224 -86.58886719 144.1027832 C-98.25243742 139.23648285 -98.25243742 139.23648285 -110.4765625 140.14453125 C-111.51554687 140.69496094 -112.55453125 141.24539062 -113.625 141.8125 C-118.08971276 144.06840996 -122.13621795 145.8688879 -127 147 C-129.64 143.04 -132.28 139.08 -135 135 C-131.79817347 132.5986301 -128.86270105 130.74061413 -125.37109375 128.84765625 C-123.70868652 127.93922974 -123.70868652 127.93922974 -122.01269531 127.01245117 C-121.42927368 126.69456635 -120.84585205 126.37668152 -120.24475098 126.04916382 C-108.20180856 119.47435174 -96.46993104 112.53615155 -85 105 C-84.33081543 104.56349121 -83.66163086 104.12698242 -82.97216797 103.67724609 C-75.33286098 98.68819535 -67.82934843 93.53921628 -60.47729492 88.13427734 C-57.98224416 86.31774742 -55.950949 84.98364967 -53 84 C-52.505 82.515 -52.505 82.515 -52 81 C-50.2578125 79.4296875 -50.2578125 79.4296875 -48.125 77.875 C-47.07699219 77.09769531 -47.07699219 77.09769531 -46.0078125 76.3046875 C-44 75 -44 75 -41 74 C-40.505 72.515 -40.505 72.515 -40 71 C-38.46875 69.4921875 -38.46875 69.4921875 -36.5 67.875 C-16.71045685 51.01854985 -2.14230838 31.24327765 0 5 C0.02620908 3.33353942 0.0386743 1.6662179 0 0 Z " fill="#00BAFD" transform="translate(298,73)"/>
<path d="M0 0 C0.99 0.33 1.98 0.66 3 1 C3.12375 1.969375 3.2475 2.93875 3.375 3.9375 C3.58125 4.948125 3.7875 5.95875 4 7 C4.99 7.495 4.99 7.495 6 8 C7.39417392 22.32807658 5.91294406 32.18632009 -0.01171875 45.46875 C-1.18184731 48.01286943 -1.18184731 48.01286943 -1 51 C-0.484375 51.886875 0.03125 52.77375 0.5625 53.6875 C2.50266726 58.15832021 2.06922318 60.26486877 1 65 C-0.0625 67.4375 -0.0625 67.4375 -2 69 C-5.97725441 70.04620888 -9.07788392 70.30737203 -13 69 C-13.23589844 69.71929687 -13.47179687 70.43859375 -13.71484375 71.1796875 C-15.21648986 74.47509326 -17.06553097 76.50689475 -19.5625 79.125 C-24.63381435 84.55541031 -29.33559588 90.21540434 -34 96 C-35.65839866 98.00712736 -37.32789773 100.00426503 -39 102 C-42.15702316 98.09130466 -45 94.1385061 -45 89 C-45.62261719 89.56654297 -45.62261719 89.56654297 -46.2578125 90.14453125 C-60.61349344 102.96853912 -76.3478137 114.3818044 -92.69140625 124.53125 C-94.88146662 125.9245879 -96.97275915 127.39904048 -99.0625 128.9375 C-102 131 -102 131 -104 131 C-103.42655063 133.86724686 -103.1385485 134.8614515 -101 137 C-101.85722656 137.268125 -102.71445313 137.53625 -103.59765625 137.8125 C-107.01276337 139.00445472 -110.17825997 140.43493876 -113.4375 142 C-117.93109741 144.10798048 -122.17038243 145.87683312 -127 147 C-129.64 143.04 -132.28 139.08 -135 135 C-131.79817347 132.5986301 -128.86270105 130.74061413 -125.37109375 128.84765625 C-123.70868652 127.93922974 -123.70868652 127.93922974 -122.01269531 127.01245117 C-121.42927368 126.69456635 -120.84585205 126.37668152 -120.24475098 126.04916382 C-108.20180856 119.47435174 -96.46993104 112.53615155 -85 105 C-84.33081543 104.56349121 -83.66163086 104.12698242 -82.97216797 103.67724609 C-75.33286098 98.68819535 -67.82934843 93.53921628 -60.47729492 88.13427734 C-57.98224416 86.31774742 -55.950949 84.98364967 -53 84 C-52.505 82.515 -52.505 82.515 -52 81 C-50.2578125 79.4296875 -50.2578125 79.4296875 -48.125 77.875 C-47.07699219 77.09769531 -47.07699219 77.09769531 -46.0078125 76.3046875 C-44 75 -44 75 -41 74 C-40.505 72.515 -40.505 72.515 -40 71 C-38.46875 69.4921875 -38.46875 69.4921875 -36.5 67.875 C-16.71045685 51.01854985 -2.14230838 31.24327765 0 5 C0.02620908 3.33353942 0.0386743 1.6662179 0 0 Z " fill="#0377CC" transform="translate(298,73)"/>
<path d="M0 0 C5.06650817 0.1512987 8.51468466 2.26558975 12.375 5.4375 C14.39418197 7.93448032 15.88031323 10.60239824 17.375 13.4375 C18.22130346 14.96038798 19.06897522 16.48251632 19.91796875 18.00390625 C20.32966309 18.75430176 20.74135742 19.50469727 21.16552734 20.27783203 C23.44857261 24.35450107 25.98658591 28.26965393 28.48828125 32.21484375 C30.013314 34.81971336 31.37573456 37.40531237 32.70703125 40.109375 C35.50544827 45.78319073 38.6084466 51.26067959 41.75 56.75 C46.40128982 64.92377898 50.98491325 73.12028111 55.375 81.4375 C56.035 81.4375 56.695 81.4375 57.375 81.4375 C57.705 82.7575 58.035 84.0775 58.375 85.4375 C45.54166667 95.4375 45.54166667 95.4375 41.375 95.4375 C41.375 94.7775 41.375 94.1175 41.375 93.4375 C40.715 93.4375 40.055 93.4375 39.375 93.4375 C39.00713379 92.76235352 38.63926758 92.08720703 38.26025391 91.39160156 C35.70855737 86.71064791 33.15390751 82.03142367 30.5859375 77.359375 C24.31734456 65.93770251 18.20522881 54.44473278 12.20703125 42.87890625 C10.01317384 38.6512455 7.78639059 34.4426163 5.53955078 30.24291992 C-3.9528582 12.47002588 -3.9528582 12.47002588 -3.625 4.4375 C-4.285 3.7775 -4.945 3.1175 -5.625 2.4375 C-3.625 0.4375 -3.625 0.4375 0 0 Z " fill="#34D7FD" transform="translate(171.625,37.5625)"/>
<path d="M0 0 C4.43680469 0.0637243 6.9420553 1.34329872 10.3125 4.3125 C12.41519575 7.94442903 12.9050165 11.16488453 12.3125 15.3125 C10.48358563 18.23604342 8.44506637 20.74621681 5.3125 22.3125 C3.85670413 22.40805417 2.3964204 22.44234691 0.9375 22.4375 C-0.21878906 22.44136719 -0.21878906 22.44136719 -1.3984375 22.4453125 C-3.6875 22.3125 -3.6875 22.3125 -5.54804993 21.72467041 C-8.21308411 21.21124491 -9.65302612 21.69700781 -12.20776367 22.58496094 C-13.10309311 22.89024216 -13.99842255 23.19552338 -14.92088318 23.51005554 C-15.88929642 23.85220596 -16.85770966 24.19435638 -17.85546875 24.546875 C-19.37932945 25.07103752 -19.37932945 25.07103752 -20.93397522 25.60578918 C-23.11704881 26.35806167 -25.2984722 27.11513664 -27.47839355 27.87649536 C-30.87973549 29.06415351 -34.28527538 30.23890539 -37.69238281 31.40991211 C-42.23247621 32.97122632 -46.77106063 34.5367824 -51.30810547 36.10693359 C-59.1488327 38.81933732 -66.99379761 41.51837794 -74.8553772 44.1697998 C-76.89340826 44.86006644 -78.92750696 45.56112774 -80.96166992 46.26269531 C-82.1757251 46.67229492 -83.38978027 47.08189453 -84.640625 47.50390625 C-86.18991699 48.03286499 -86.18991699 48.03286499 -87.77050781 48.57250977 C-92.03719477 49.65489411 -95.36976486 49.88152199 -99.4375 48.125 C-102.12935152 45.95656405 -102.90664023 44.67019699 -103.6875 41.3125 C-103.53601594 37.6011406 -103.14946061 35.86387235 -100.75 33 C-97.03634621 29.96155599 -94.43761987 30.14285286 -89.6875 30.3125 C-89.0275 30.6425 -88.3675 30.9725 -87.6875 31.3125 C-79.52083667 32.28459871 -72.43496469 30.09183005 -64.75 27.5625 C-63.52031494 27.16780518 -62.29062988 26.77311035 -61.02368164 26.36645508 C-57.63928715 25.27572815 -54.26299784 24.1616612 -50.88830566 23.0413208 C-48.58962316 22.28008702 -46.28868545 21.52598365 -43.98730469 20.77294922 C-39.97798199 19.45896163 -35.97431314 18.12889974 -31.97433472 16.78674316 C-30.41501858 16.26456074 -28.85457604 15.74572934 -27.29299927 15.23034668 C-25.09602795 14.50277883 -22.905 13.75951372 -20.71484375 13.01171875 C-20.06192352 12.79841415 -19.4090033 12.58510956 -18.73629761 12.36534119 C-14.80343237 10.99888244 -12.40327473 9.45322579 -9.6875 6.3125 C-3.6875 0.3125 -3.6875 0.3125 0 0 Z " fill="#018FF9" transform="translate(153.6875,208.6875)"/>
<path d="M0 0 C0.39832031 0.81984375 0.79664063 1.6396875 1.20703125 2.484375 C1.73683594 3.56203125 2.26664063 4.6396875 2.8125 5.75 C3.33457031 6.81734375 3.85664063 7.8846875 4.39453125 8.984375 C5.77837557 11.58371276 7.23391037 13.6656142 9 16 C10.54498887 18.50470397 11.99487247 21.06026239 13.4375 23.625 C13.84363525 24.34574707 14.24977051 25.06649414 14.66821289 25.80908203 C17.08794207 30.17076258 19.07053187 34.47447975 20.765625 39.16796875 C22.94008224 44.15683426 25.77877567 48.82100346 28.56030273 53.49365234 C31.17115715 58.00272834 32.81374646 61.66516637 33 67 C31.5625 69.9375 31.5625 69.9375 30 72 C28.0703125 71.71875 28.0703125 71.71875 26 71 C25.62875 69.845 25.2575 68.69 24.875 67.5 C23.17918409 62.28210488 19.63896137 59.67620139 15.546875 56.2109375 C12.67733986 53.71989932 10.28033134 51.05004068 7.8359375 48.15234375 C5.66177009 45.6034794 3.39587584 43.15052687 1.125 40.6875 C-3.79871301 35.29165013 -8.41826275 29.68642489 -13 24 C-16.3688376 19.88350278 -16.3688376 19.88350278 -20 16 C-19.56131592 15.62190186 -19.12263184 15.24380371 -18.6706543 14.85424805 C-16.67522109 13.13320999 -14.68134757 11.41037472 -12.6875 9.6875 C-11.65206055 8.79514648 -11.65206055 8.79514648 -10.59570312 7.88476562 C-9.59506836 7.01948242 -9.59506836 7.01948242 -8.57421875 6.13671875 C-7.65515747 5.34334106 -7.65515747 5.34334106 -6.7175293 4.53393555 C-4.97352297 3.02057287 -4.97352297 3.02057287 -3.40161133 1.30395508 C-2 0 -2 0 0 0 Z " fill="#3ADAFC" transform="translate(253,162)"/>
<path d="M0 0 C1.41732422 0.29003906 1.41732422 0.29003906 2.86328125 0.5859375 C9.6077132 2.0137749 14.51758674 3.58429835 19 9 C22.66324032 14.98329252 23.13565619 20.08153444 23 27 C22.34 27.33 21.68 27.66 21 28 C20.90203125 27.05898437 20.8040625 26.11796875 20.703125 25.1484375 C19.79924192 15.7438268 19.79924192 15.7438268 15 8 C12.01106771 5.81297638 10.72055546 5 7 5 C6.66602213 7.87413125 6.66602213 7.87413125 7 11 C8.88347363 12.72520185 8.88347363 12.72520185 11 14 C11.99604209 16.98812627 12.16546794 19.0633532 12.1875 22.1875 C12.20167969 23.08855469 12.21585937 23.98960938 12.23046875 24.91796875 C11.68895545 32.15956181 9.62849165 37.33634566 5.625 43.25 C5.23828125 43.848125 4.8515625 44.44625 4.453125 45.0625 C2.25220984 48.40080085 -0.06085608 51.2890088 -3 54 C-3 50.0713169 -1.63230974 48.89472191 0.75 45.8125 C7.07643873 37.26900841 11.24000492 29.87328196 9.69921875 18.84765625 C8.84627699 16.10315658 7.5761758 14.3602615 5.14453125 12.83984375 C-0.28162823 10.62136085 -4.14071717 11.22169411 -9.6953125 12.640625 C-13.18642738 13.18500224 -15.20399369 12.00738915 -18 10 C-18.495 9.01 -18.495 9.01 -19 8 C-19.66 8.33 -20.32 8.66 -21 9 C-23.67256215 9.02087939 -26.32894647 8.9933039 -29 8.9375 C-36.39419746 8.84759183 -43.56652433 9.33044715 -50.89648438 10.28881836 C-55.31146716 10.86005517 -59.54649452 11.09338937 -64 11 C-63 9 -63 9 -61.24438477 8.26977539 C-60.48440186 8.04797607 -59.72441895 7.82617676 -58.94140625 7.59765625 C-58.08885254 7.34854492 -57.23629883 7.09943359 -56.35791016 6.84277344 C-55.4354248 6.5852832 -54.51293945 6.32779297 -53.5625 6.0625 C-52.62196777 5.79598633 -51.68143555 5.52947266 -50.71240234 5.25488281 C-43.16252666 3.18047608 -35.62556343 1.75273734 -27.8828125 0.640625 C-8.60682535 -2.53971896 -8.60682535 -2.53971896 0 0 Z " fill="#0F92E7" transform="translate(271,51)"/>
<path d="M0 0 C0.99 0.33 1.98 0.66 3 1 C3.12375 1.969375 3.2475 2.93875 3.375 3.9375 C3.58125 4.948125 3.7875 5.95875 4 7 C4.66 7.33 5.32 7.66 6 8 C7.39417392 22.32807658 5.91294406 32.18632009 -0.01171875 45.46875 C-1.18184731 48.01286943 -1.18184731 48.01286943 -1 51 C-0.2265625 52.3921875 -0.2265625 52.3921875 0.5625 53.8125 C2.2129159 57.47211786 1.99918483 59.18493066 1 63 C0.67 63 0.34 63 0 63 C-0.16435547 62.15115234 -0.16435547 62.15115234 -0.33203125 61.28515625 C-0.49058594 60.55167969 -0.64914062 59.81820312 -0.8125 59.0625 C-0.96332031 58.33160156 -1.11414063 57.60070312 -1.26953125 56.84765625 C-1.63111328 55.93306641 -1.63111328 55.93306641 -2 55 C-3.485 54.505 -3.485 54.505 -5 54 C-5 53.34 -5 52.68 -5 52 C-7.64 52.66 -10.28 53.32 -13 54 C-13.33 52.02 -13.66 50.04 -14 48 C-14.40992188 48.5775 -14.81984375 49.155 -15.2421875 49.75 C-16.05042969 50.86375 -16.05042969 50.86375 -16.875 52 C-17.40867187 52.7425 -17.94234375 53.485 -18.4921875 54.25 C-19.23855469 55.11625 -19.23855469 55.11625 -20 56 C-20.66 56 -21.32 56 -22 56 C-22 56.66 -22 57.32 -22 58 C-22.66 58 -23.32 58 -24 58 C-22.99939051 54.44227738 -21.40145429 52.21467302 -18.9375 49.5625 C-6.10547314 35.36136568 0.4451793 19.17980798 0 0 Z " fill="#0772C4" transform="translate(298,73)"/>
<path d="M0 0 C-0.56847656 0.31710938 -1.13695312 0.63421875 -1.72265625 0.9609375 C-14.24438788 8.5283279 -19.9581307 22.55174286 -25.52734375 35.5703125 C-27.00624181 39.01453663 -28.62282909 42.34187666 -30.3125 45.6875 C-31.01051183 47.07547298 -31.70841947 48.46349836 -32.40625 49.8515625 C-32.80457031 50.64208008 -33.20289063 51.43259766 -33.61328125 52.24707031 C-36.20290905 57.38802859 -38.78713611 62.53167468 -41.36679077 67.67764282 C-42.29732894 69.53226314 -43.23029752 71.38564731 -44.16333008 73.23901367 C-47.58695874 80.00603909 -47.58695874 80.00603909 -50.69140625 86.921875 C-52.6240807 91.46798684 -55.07506927 95.70017711 -57.4765625 100.01171875 C-58.70839547 102.4280065 -59.52425087 104.35766362 -60 107 C-60.66 107 -61.32 107 -62 107 C-62.66 109.64 -63.32 112.28 -64 115 C-64.66 115 -65.32 115 -66 115 C-66.66 117.31 -67.32 119.62 -68 122 C-66.68 122.33 -65.36 122.66 -64 123 C-65.05486051 129.12096691 -66.65217026 133.75506674 -70 139 C-70.66 139 -71.32 139 -72 139 C-72.33 137.35 -72.66 135.7 -73 134 C-73.66 134 -74.32 134 -75 134 C-75.4640625 135.3921875 -75.4640625 135.3921875 -75.9375 136.8125 C-76.625 138.875 -77.3125 140.9375 -78 143 C-74.98509443 144.00496852 -72.95818308 144.10335303 -69.8125 144.0625 C-68.91144531 144.05347656 -68.01039062 144.04445312 -67.08203125 144.03515625 C-66.39496094 144.02355469 -65.70789063 144.01195312 -65 144 C-65.33 144.66 -65.66 145.32 -66 146 C-69.01953125 146.88671875 -69.01953125 146.88671875 -72.8125 147.6875 C-74.05644531 147.95949219 -75.30039063 148.23148438 -76.58203125 148.51171875 C-79.70687527 148.95812504 -81.09515705 148.8626792 -84 148 C-83.30342285 146.61554688 -83.30342285 146.61554688 -82.59277344 145.203125 C-78.81413821 137.67773763 -75.07507331 130.13447234 -71.390625 122.5625 C-70.98518463 121.72941818 -70.57974426 120.89633636 -70.16201782 120.03800964 C-69.30559903 118.27806767 -68.44920523 116.51811354 -67.59283447 114.75814819 C-54.897198 88.68163057 -41.92284102 62.74693933 -28.91894531 36.82324219 C-27.11259026 33.22152233 -25.30910447 29.61841261 -23.51074219 26.01269531 C-23.14254364 25.27465164 -22.77434509 24.53660797 -22.39498901 23.77619934 C-21.74239683 22.46736244 -21.09040905 21.15822386 -20.4392395 19.84867859 C-8.91208628 -3.26776497 -8.91208628 -3.26776497 0 0 Z " fill="#087EE3" transform="translate(165,39)"/>
<path d="M0 0 C0.495 0.99 0.495 0.99 1 2 C-1.35280054 5.52920081 -4.00502838 6.90646669 -7.625 8.875 C-8.89252326 9.58226596 -10.1594536 10.29059558 -11.42578125 11 C-12.0388916 11.34160156 -12.65200195 11.68320313 -13.28369141 12.03515625 C-19.53007499 15.11813381 -19.53007499 15.11813381 -24 20 C-29.42307692 23 -29.42307692 23 -32 23 C-31.89300781 23.66386719 -31.78601563 24.32773438 -31.67578125 25.01171875 C-30.69400667 32.24306914 -30.69400667 32.24306914 -32.1875 35.9375 C-34.67208048 38.76478124 -36.65122379 40.75575046 -40.4375 41.44140625 C-41.283125 41.48136719 -42.12875 41.52132812 -43 41.5625 C-46.53629305 41.74039279 -48.91682739 42.22289356 -52 44 C-51.01 41.69 -50.02 39.38 -49 37 C-48.08476563 37.03480469 -47.16953125 37.06960937 -46.2265625 37.10546875 C-45.03804687 37.13253906 -43.84953125 37.15960938 -42.625 37.1875 C-41.44164063 37.22230469 -40.25828125 37.25710937 -39.0390625 37.29296875 C-38.03617188 37.19628906 -37.03328125 37.09960938 -36 37 C-33.71937172 33.57905758 -33.78074993 32.31812778 -33.875 28.3125 C-33.90207031 26.82169922 -33.90207031 26.82169922 -33.9296875 25.30078125 C-33.95289062 24.54152344 -33.97609375 23.78226563 -34 23 C-36.56564725 21.71717637 -38.51033069 21.79608047 -41.375 21.75 C-42.33148438 21.72421875 -43.28796875 21.6984375 -44.2734375 21.671875 C-47.48321886 22.05815241 -48.83615864 22.59401449 -51 25 C-51.25848068 27.61479727 -51.25848068 27.61479727 -50.875 30.4375 C-50.75390625 33.3984375 -50.75390625 33.3984375 -51 36 C-53.8125 38.5625 -53.8125 38.5625 -57 40 C-57.99 40.66 -58.98 41.32 -60 42 C-58.99162258 39.82811017 -58.01850109 38.02231574 -56.484375 36.171875 C-54.78762824 33.68926659 -54.4638534 31.95829024 -54.0625 29 C-53.49549862 25.91551249 -53.1015045 24.15616077 -51.375 21.5 C-48.11184868 19.43906233 -44.84678224 18.36533686 -41 18 C-40.26072266 18.22059082 -39.52144531 18.44118164 -38.75976562 18.66845703 C-34.96293215 19.12458759 -33.09465793 17.9015827 -29.74609375 16.10546875 C-29.16336197 15.79805252 -28.58063019 15.49063629 -27.98023987 15.17390442 C-26.12530932 14.19156437 -24.28155287 13.19008483 -22.4375 12.1875 C-21.19405671 11.52408196 -19.94992189 10.86195831 -18.70507812 10.20117188 C-16.41660366 8.98476725 -14.13368644 7.75968765 -11.85327148 6.52807617 C-10.16712081 5.62505426 -8.46764624 4.74513571 -6.74243164 3.91918945 C-4.81522387 3.01221688 -4.81522387 3.01221688 -3 1 C-2.01 0.67 -1.02 0.34 0 0 Z " fill="#0586EB" transform="translate(118,101)"/>
<path d="M0 0 C8.04705882 -0.46425339 8.04705882 -0.46425339 11.4375 1.1875 C14.06749594 4.23829529 14.84951715 6.98961517 15.4375 10.9375 C14.81731894 15.27876742 13.04686605 16.88058952 10 20 C7.66062093 21.16968953 6.22630632 21.13364221 3.625 21.125 C2.46871094 21.12886719 2.46871094 21.12886719 1.2890625 21.1328125 C-1 21 -1 21 -2.86054993 20.41217041 C-5.52558411 19.89874491 -6.96552612 20.38450781 -9.52026367 21.27246094 C-10.41559311 21.57774216 -11.31092255 21.88302338 -12.23338318 22.19755554 C-13.20179642 22.53970596 -14.17020966 22.88185638 -15.16796875 23.234375 C-16.69182945 23.75853752 -16.69182945 23.75853752 -18.24647522 24.29328918 C-20.42954881 25.04556167 -22.6109722 25.80263664 -24.79089355 26.56399536 C-28.19223549 27.75165351 -31.59777538 28.92640539 -35.00488281 30.09741211 C-39.54497621 31.65872632 -44.08356063 33.2242824 -48.62060547 34.79443359 C-56.4613327 37.50683732 -64.30629761 40.20587794 -72.1678772 42.8572998 C-74.20590826 43.54756644 -76.24000696 44.24862774 -78.27416992 44.95019531 C-79.4882251 45.35979492 -80.70228027 45.76939453 -81.953125 46.19140625 C-83.50241699 46.72036499 -83.50241699 46.72036499 -85.08300781 47.26000977 C-89.34969477 48.34239411 -92.68226486 48.56902199 -96.75 46.8125 C-99.44185152 44.64406405 -100.21914023 43.35769699 -101 40 C-100.84851594 36.2886406 -100.46196061 34.55137235 -98.0625 31.6875 C-94.34500051 28.64590951 -91.74087067 28.9122061 -87 29 C-87 29.66 -87 30.32 -87 31 C-87.62648438 31.10957031 -88.25296875 31.21914062 -88.8984375 31.33203125 C-89.71570313 31.49058594 -90.53296875 31.64914063 -91.375 31.8125 C-92.59316406 32.03873047 -92.59316406 32.03873047 -93.8359375 32.26953125 C-96.35820641 32.87544942 -96.35820641 32.87544942 -98 36 C-97.76787034 41.04001408 -97.76787034 41.04001408 -95 45 C-87.40517425 45.4278642 -80.10977649 42.66235618 -73.0625 40.1875 C-72.05509766 39.84396484 -71.04769531 39.50042969 -70.00976562 39.14648438 C-65.18706719 37.49343083 -60.39551161 35.77551986 -55.62109375 33.98828125 C-51.53103301 32.48705222 -47.42064397 31.23931457 -43.22265625 30.07421875 C-35.82291548 28.00891646 -28.64641252 25.45900643 -21.4375 22.8125 C-18.99988057 21.91994055 -16.56112149 21.0304858 -14.12109375 20.14453125 C-13.0633374 19.75628174 -12.00558105 19.36803223 -10.91577148 18.96801758 C-3.79323706 16.60338147 -3.79323706 16.60338147 -1 18 C3.25740306 18.50135441 6.81693041 18.64787144 10.625 16.5625 C12.44650487 13.16787729 12.28793017 10.81036971 11.671875 7.05859375 C11.11309066 4.77391432 11.11309066 4.77391432 8.8125 3 C5.86613911 1.95240502 3.10351345 1.36087366 0 1 C0 0.67 0 0.34 0 0 Z " fill="#0A7DDF" transform="translate(151,210)"/>
<path d="M0 0 C0.72413086 0.36206543 1.44826172 0.72413086 2.19433594 1.09716797 C3.00257813 1.49162109 3.81082031 1.88607422 4.64355469 2.29248047 C5.48015625 2.72044922 6.31675781 3.14841797 7.17871094 3.58935547 C7.99984375 3.99412109 8.82097656 4.39888672 9.66699219 4.81591797 C12.09558783 6.01674497 14.51272509 7.2383924 16.92871094 8.46435547 C18.39174863 9.19713338 19.85525541 9.92897585 21.31933594 10.65966797 C24.52246094 12.26123047 27.72558594 13.86279297 30.92871094 15.46435547 C30.26871094 16.45435547 29.60871094 17.44435547 28.92871094 18.46435547 C31.40371094 19.45435547 31.40371094 19.45435547 33.92871094 20.46435547 C29.89394383 22.09531237 27.18517331 20.7289811 23.25683594 19.22607422 C22.61558777 18.98524612 21.9743396 18.74441803 21.31365967 18.49629211 C19.26463106 17.7250364 17.22154431 16.9393581 15.17871094 16.15185547 C12.49865777 15.12895148 9.81624255 14.11249618 7.13183594 13.10107422 C6.17525085 12.73971878 6.17525085 12.73971878 5.19934082 12.37106323 C0.81665263 10.7372142 -3.49874223 9.43162499 -8.07128906 8.46435547 C-7.08128906 7.80435547 -6.09128906 7.14435547 -5.07128906 6.46435547 C-5.40128906 4.81435547 -5.73128906 3.16435547 -6.07128906 1.46435547 C-2.67852441 -0.69267828 -2.67852441 -0.69267828 0 0 Z " fill="#0392F4" transform="translate(200.0712890625,202.53564453125)"/>
<path d="M0 0 C1.32 0 2.64 0 4 0 C2.51846172 3.3183434 0.59800099 5.80041356 -1.75 8.5625 C-9.0364465 17.5212457 -14.10196706 26.26609145 -13 38 C-11.22939627 43.21344431 -8.86122426 45.4793652 -4 48 C5.06552248 51.00476828 14.25380387 50.21575499 23.5625 48.875 C24.45219482 48.74738281 25.34188965 48.61976563 26.25854492 48.48828125 C38.76456527 46.56511109 51.68062424 43.88925829 63.51171875 39.32421875 C66.68641435 38.11904315 68.66407559 37.68725709 72 38 C71 40 71 40 68.77734375 40.74609375 C67.37162109 41.08833984 67.37162109 41.08833984 65.9375 41.4375 C62.54050174 42.30751628 59.25937977 43.20573485 56 44.5 C37.84464132 51.58305419 13.48160297 57.31351836 -5.4453125 50.85546875 C-10.39909812 48.6712908 -13.11922339 44.97126194 -15.3125 40.0625 C-17.28040968 31.29635687 -14.93063386 23.79372825 -10.31640625 16.24609375 C-7.88950011 12.7440421 -5.33841991 9.40966621 -2.625 6.125 C-1.01251795 4.01636963 -0.38546982 2.6019213 0 0 Z " fill="#0875DE" transform="translate(62,146)"/>
<path d="M0 0 C0 0.66 0 1.32 0 2 C1.32 2.33 2.64 2.66 4 3 C4.41846009 4.57750424 4.80896389 6.16244248 5.1875 7.75 C5.40792969 8.63171875 5.62835938 9.5134375 5.85546875 10.421875 C6 13 6 13 4.80078125 15.27734375 C2.74676971 17.24224416 1.79311728 17.58503022 -1 17.8125 C-2.0209375 17.91498047 -2.0209375 17.91498047 -3.0625 18.01953125 C-5 18 -5 18 -8 17 C-8 15.68 -8 14.36 -8 13 C-8.66 13 -9.32 13 -10 13 C-10.32150943 8.90075477 -10.41384837 6.65644914 -8.1875 3.125 C-5.4287685 0.4450894 -3.8236806 0 0 0 Z " fill="#019AFA" transform="translate(293,125)"/>
<path d="M0 0 C0.33 0 0.66 0 1 0 C1.08636719 0.7734375 1.17273438 1.546875 1.26171875 2.34375 C2.40720397 10.83505329 4.42888493 16.9868666 10.875 22.8125 C20.31588202 29.42111742 29.59634122 29.24044689 40.6875 29.25 C41.73519058 29.25101212 41.73519058 29.25101212 42.80404663 29.25204468 C59.06872284 29.22706771 73.55012295 26.70080269 89.109375 22.0859375 C92.37913174 21.13185892 95.62304229 20.47787137 99 20 C98 22 98 22 94.30078125 23.3671875 C76.51631238 28.89802407 59.43084798 32.32652233 40.75 32.4375 C39.53642822 32.44765137 38.32285645 32.45780273 37.07250977 32.46826172 C25.88594249 32.35826293 15.89638714 30.12017215 7 23 C2.30322071 17.42674262 -0.14888364 12.65510944 -0.0625 5.3125 C-0.05347656 4.31863281 -0.04445313 3.32476562 -0.03515625 2.30078125 C-0.02355469 1.54152344 -0.01195313 0.78226563 0 0 Z " fill="#076ED8" transform="translate(30,187)"/>
<path d="M0 0 C2.64389616 2.37882185 4.19315271 4.88237094 5.8828125 8 C6.41003906 8.969375 6.93726563 9.93875 7.48046875 10.9375 C8.02316406 11.948125 8.56585938 12.95875 9.125 14 C9.95064453 15.5159375 9.95064453 15.5159375 10.79296875 17.0625 C16.61844533 27.82603413 16.61844533 27.82603413 16 35 C13.63457707 38.94237155 11.45646413 40.85997429 7 42 C1.21580284 42.38221766 -3.18819745 41.25121403 -8.55859375 39.375 C-9.34774673 39.10864746 -10.13689972 38.84229492 -10.94996643 38.56787109 C-13.44929696 37.72178608 -15.94333231 36.86117058 -18.4375 36 C-20.13964425 35.42090497 -21.84211541 34.8427699 -23.54492188 34.265625 C-27.70047881 32.85482715 -31.85135302 31.4309835 -36 30 C-36 29.34 -36 28.68 -36 28 C-31.1685604 28.62075772 -26.88243481 30.03985199 -22.375 31.8125 C-20.95623142 32.35418192 -19.53695514 32.89453585 -18.1171875 33.43359375 C-17.42077148 33.69897949 -16.72435547 33.96436523 -16.00683594 34.23779297 C-5.30176484 38.35230792 -5.30176484 38.35230792 6 39 C6 38.67 6 38.34 6 38 C6.94875 37.9175 7.8975 37.835 8.875 37.75 C11.99672025 37.31679357 11.99672025 37.31679357 13.4375 35.375 C15.36763257 27.22555137 10.29948002 20.48767767 6.4375 13.6875 C5.22435572 11.52670584 4.01453683 9.36404016 2.80859375 7.19921875 C2.27032959 6.24877686 1.73206543 5.29833496 1.17749023 4.3190918 C0 2 0 2 0 0 Z " fill="#1298F0" transform="translate(271,196)"/>
<path d="M0 0 C0.98484375 0.00902344 1.9696875 0.01804688 2.984375 0.02734375 C4.10585937 0.04474609 4.10585937 0.04474609 5.25 0.0625 C5.25 0.3925 5.25 0.7225 5.25 1.0625 C2.94 1.7225 0.63 2.3825 -1.75 3.0625 C-1.75 3.7225 -1.75 4.3825 -1.75 5.0625 C-0.76 5.3925 0.23 5.7225 1.25 6.0625 C-2.93672147 6.56916472 -7.12448633 7.06663918 -11.3125 7.5625 C-12.49392578 7.70558594 -13.67535156 7.84867188 -14.89257812 7.99609375 C-20.54570264 8.66116722 -26.05643621 9.26315423 -31.75 9.0625 C-30.75 7.0625 -30.75 7.0625 -28.7722168 6.30053711 C-27.92312744 6.0660083 -27.07403809 5.83147949 -26.19921875 5.58984375 C-24.80993164 5.20022461 -24.80993164 5.20022461 -23.39257812 4.80273438 C-22.41740234 4.53783203 -21.44222656 4.27292969 -20.4375 4 C-18.99213867 3.5968457 -18.99213867 3.5968457 -17.51757812 3.18554688 C-14.93115708 2.46679785 -12.34333857 1.75585881 -9.75 1.0625 C-9.04560791 0.87187988 -8.34121582 0.68125977 -7.61547852 0.48486328 C-5.05440311 -0.0949902 -2.62117479 -0.03120446 0 0 Z " fill="#248ED5" transform="translate(238.75,52.9375)"/>
<path d="M0 0 C-0.56847656 0.31710938 -1.13695312 0.63421875 -1.72265625 0.9609375 C-14.21251835 8.50906785 -19.9488878 22.49424067 -25.48828125 35.4921875 C-27.1663776 39.38606482 -29.02306759 43.15604017 -30.9375 46.9375 C-31.27201172 47.60201172 -31.60652344 48.26652344 -31.95117188 48.95117188 C-32.6227977 50.28536498 -33.295152 51.61919163 -33.96826172 52.95263672 C-35.65389191 56.2975716 -37.32639063 59.64903717 -39 63 C-39.66 62.34 -40.32 61.68 -41 61 C-40 59 -39 57 -38 55 C-37.68852524 54.37695984 -37.37705048 53.75391968 -37.05613708 53.11199951 C-35.34296456 49.68528258 -33.629194 46.25886692 -31.91430664 42.83300781 C-27.65460511 34.32455905 -27.65460511 34.32455905 -23.43359375 25.796875 C-9.09825077 -3.33602528 -9.09825077 -3.33602528 0 0 Z " fill="#0D8CE6" transform="translate(165,39)"/>
<path d="M0 0 C0.99 0.495 0.99 0.495 2 1 C-5.62086841 6.08057894 -13.7829635 9.99957825 -22 14 C-22.82290527 14.40444336 -23.64581055 14.80888672 -24.49365234 15.22558594 C-38.583078 22.14100129 -52.80858045 28.8749148 -68 33 C-68 32.34 -68 31.68 -68 31 C-67.35788574 30.74943848 -66.71577148 30.49887695 -66.05419922 30.24072266 C-44.65731558 21.86208149 -23.83113948 12.83241401 -3.62207031 1.87280273 C-2.42514453 1.22876154 -1.21570404 0.60785202 0 0 Z " fill="#0484EB" transform="translate(203,151)"/>
<path d="M0 0 C-1 2 -1 2 -3.22265625 2.74609375 C-4.62837891 3.08833984 -4.62837891 3.08833984 -6.0625 3.4375 C-9.45949826 4.30751628 -12.74062023 5.20573485 -16 6.5 C-25.31925529 10.12422427 -35.07738253 11.88704596 -44.90966797 13.47241211 C-47.02680862 13.81686165 -49.14010275 14.18061565 -51.25390625 14.54492188 C-52.60657867 14.76679972 -53.9594373 14.98754597 -55.3125 15.20703125 C-56.52550781 15.4078833 -57.73851563 15.60873535 -58.98828125 15.81567383 C-62 16 -62 16 -65 14 C-61.535 13.505 -61.535 13.505 -58 13 C-58 12.67 -58 12.34 -58 12 C-56.14375 11.77957031 -56.14375 11.77957031 -54.25 11.5546875 C-44.07089471 10.26601695 -34.14293325 8.501233 -24.1875 6 C-23.19298828 5.7510498 -22.19847656 5.50209961 -21.17382812 5.24560547 C-16.85601258 4.12809626 -12.65130211 2.93052448 -8.48828125 1.32421875 C-5.31358565 0.11904315 -3.33592441 -0.31274291 0 0 Z " fill="#037CE7" transform="translate(134,184)"/>
<path d="M0 0 C0.495 0.99 0.495 0.99 1 2 C-1.35220269 5.52830404 -4.00441626 6.90865255 -7.625 8.875 C-11.64169882 11.09119764 -15.54245027 13.31452422 -19.3125 15.9375 C-23.31347726 18.52381502 -27.31084183 18.88060014 -32 19 C-32 18.34 -32 17.68 -32 17 C-28.25029335 15.04110461 -24.500184 13.08298137 -20.75 11.125 C-19.68652344 10.56941406 -18.62304688 10.01382813 -17.52734375 9.44140625 C-15.99013672 8.63896484 -15.99013672 8.63896484 -14.421875 7.8203125 C-13.47924805 7.32805176 -12.53662109 6.83579102 -11.56542969 6.32861328 C-9.98510094 5.51017504 -8.3937719 4.71212856 -6.78613281 3.94873047 C-4.82203017 3.01721549 -4.82203017 3.01721549 -3 1 C-2.01 0.67 -1.02 0.34 0 0 Z " fill="#0E8AE4" transform="translate(118,101)"/>
<path d="M0 0 C2.09350689 3.4019487 2.17942163 6.05272412 2 10 C1.34 10 0.68 10 0 10 C0 10.66 0 11.32 0 12 C-5.75 13.125 -5.75 13.125 -8 12 C-8 11.34 -8 10.68 -8 10 C-8.66 9.67 -9.32 9.34 -10 9 C-9.67 6.69 -9.34 4.38 -9 2 C-2.25 0 -2.25 0 0 0 Z " fill="#029DFA" transform="translate(264,49)"/>
<path d="M0 0 C0.33 0.66 0.66 1.32 1 2 C0.37915039 3.78759766 0.37915039 3.78759766 -0.65234375 5.9140625 C-1.01650391 6.67460937 -1.38066406 7.43515625 -1.75585938 8.21875 C-2.14580078 9.0128125 -2.53574219 9.806875 -2.9375 10.625 C-3.32357422 11.42679688 -3.70964844 12.22859375 -4.10742188 13.0546875 C-5.06461573 15.03997846 -6.02903475 17.02141737 -7 19 C-5.16262173 21.27216848 -5.16262173 21.27216848 -2.3984375 21.1953125 C-1.40070313 21.17210937 -0.40296875 21.14890625 0.625 21.125 C1.62789062 21.10695312 2.63078125 21.08890625 3.6640625 21.0703125 C4.43492188 21.04710937 5.20578125 21.02390625 6 21 C5.67 21.66 5.34 22.32 5 23 C1.98046875 23.88671875 1.98046875 23.88671875 -1.8125 24.6875 C-3.05644531 24.95949219 -4.30039063 25.23148438 -5.58203125 25.51171875 C-8.70687527 25.95812504 -10.09515705 25.8626792 -13 25 C-4.42553191 7.65957447 -4.42553191 7.65957447 0 0 Z " fill="#0664CD" transform="translate(94,162)"/>
<path d="M0 0 C0.66 0.66 1.32 1.32 2 2 C4.06874034 2.6425235 4.06874034 2.6425235 6 3 C4.94513949 9.12096691 3.34782974 13.75506674 0 19 C-0.66 19 -1.32 19 -2 19 C-2.99204718 13.08793506 -3.07541095 8.76503042 -1 3 C-0.67 2.01 -0.34 1.02 0 0 Z " fill="#0078F2" transform="translate(95,159)"/>
<path d="M0 0 C1.56041016 0.56847656 1.56041016 0.56847656 3.15234375 1.1484375 C4.19519531 1.51195312 5.23804688 1.87546875 6.3125 2.25 C8.93216984 3.45114257 10.14659273 4.49394753 12.08984375 6.5234375 C13.10046875 6.6678125 14.11109375 6.8121875 15.15234375 6.9609375 C16.12171875 7.1465625 17.09109375 7.3321875 18.08984375 7.5234375 C19.46484375 9.5859375 19.46484375 9.5859375 20.08984375 11.5234375 C16.17997168 11.12242498 13.10004093 10.14179334 9.58984375 8.4609375 C5.92528456 6.74336915 3.19474087 6.10242241 -0.91015625 6.5234375 C-0.91015625 5.8634375 -0.91015625 5.2034375 -0.91015625 4.5234375 C-2.89015625 3.8634375 -4.87015625 3.2034375 -6.91015625 2.5234375 C-4.41338627 0.05674908 -3.54946615 -0.58125486 0 0 Z " fill="#02A3FC" transform="translate(233.91015625,218.4765625)"/>
<path d="M0 0 C0.66 0 1.32 0 2 0 C0.59266444 3.1735417 -1.10045105 5.31952598 -3.5 7.8125 C-12.77691648 18.05435123 -19.93234884 29.78013374 -24 43 C-24.33 43 -24.66 43 -25 43 C-25.81346258 31.79794242 -16.76292295 20.30164303 -10 12 C-7.63506653 9.29134792 -5.23783691 6.62546839 -2.78515625 3.99609375 C-0.95116302 2.12140655 -0.95116302 2.12140655 0 0 Z " fill="#0B70D5" transform="translate(56,143)"/>
<path d="M0 0 C0 3 0 3 -2.484375 5.59375 C-3.56537415 6.57090933 -4.65430121 7.53935246 -5.75 8.5 C-6.28882813 8.98597656 -6.82765625 9.47195312 -7.3828125 9.97265625 C-15.2335235 17 -15.2335235 17 -18 17 C-18 17.66 -18 18.32 -18 19 C-20.08984375 20.515625 -20.08984375 20.515625 -22.9375 22.25 C-28.03236259 25.39799152 -33.03433768 28.65277577 -38 32 C-38.66 31.67 -39.32 31.34 -40 31 C-38.92363281 30.24976563 -37.84726563 29.49953125 -36.73828125 28.7265625 C-19.62906474 17.161605 -19.62906474 17.161605 -4.3671875 3.375 C-3 2 -3 2 0 0 Z " fill="#109DF2" transform="translate(264,107)"/>
<path d="M0 0 C-6.74821757 2.90012792 -13.40663741 5.05232493 -20.5625 6.6875 C-21.88411133 7.00557617 -21.88411133 7.00557617 -23.23242188 7.33007812 C-28.81091937 8.63515835 -34.27343884 9.66778062 -40 10 C-40.66 9.34 -41.32 8.68 -42 8 C-40.90945312 7.84144531 -39.81890625 7.68289062 -38.6953125 7.51953125 C-28.29477272 5.93572812 -9.38152305 -2.81445691 0 0 Z " fill="#057BE6" transform="translate(129,208)"/>
<path d="M0 0 C0.99 0.33 1.98 0.66 3 1 C3.12375 1.969375 3.2475 2.93875 3.375 3.9375 C3.684375 5.4534375 3.684375 5.4534375 4 7 C4.66 7.33 5.32 7.66 6 8 C6.33 13.61 6.66 19.22 7 25 C5.68 25 4.36 25 3 25 C2.34 18.4 1.68 11.8 1 5 C0.67 5 0.34 5 0 5 C0 3.35 0 1.7 0 0 Z " fill="#087DC8" transform="translate(298,73)"/>
<path d="M0 0 C2.64389616 2.37882185 4.19315271 4.88237094 5.8828125 8 C6.41003906 8.969375 6.93726563 9.93875 7.48046875 10.9375 C8.02316406 11.948125 8.56585938 12.95875 9.125 14 C9.67542969 15.010625 10.22585938 16.02125 10.79296875 17.0625 C16.61844533 27.82603413 16.61844533 27.82603413 16 35 C13.86320715 38.38939556 12.8225233 39.72582557 9 41 C8.01 40.01 7.02 39.02 6 38 C6.94875 37.9175 7.8975 37.835 8.875 37.75 C11.99672025 37.31679357 11.99672025 37.31679357 13.4375 35.375 C15.36763257 27.22555137 10.29948002 20.48767767 6.4375 13.6875 C5.22435572 11.52670584 4.01453683 9.36404016 2.80859375 7.19921875 C2.27032959 6.24877686 1.73206543 5.29833496 1.17749023 4.3190918 C0 2 0 2 0 0 Z " fill="#1EAFF1" transform="translate(271,196)"/>
<path d="M0 0 C0 0.33 0 0.66 0 1 C-0.89203125 1.03738281 -1.7840625 1.07476562 -2.703125 1.11328125 C-3.87359375 1.17902344 -5.0440625 1.24476562 -6.25 1.3125 C-7.41015625 1.37050781 -8.5703125 1.42851563 -9.765625 1.48828125 C-13.17140105 2.0271178 -14.73339347 2.40637064 -17 5 C-17.25848068 7.61479727 -17.25848068 7.61479727 -16.875 10.4375 C-16.75390625 13.3984375 -16.75390625 13.3984375 -17 16 C-19.8125 18.5625 -19.8125 18.5625 -23 20 C-23.99 20.66 -24.98 21.32 -26 22 C-24.99162258 19.82811017 -24.01850109 18.02231574 -22.484375 16.171875 C-20.78762824 13.68926659 -20.4638534 11.95829024 -20.0625 9 C-19.49121711 5.86715837 -19.11471891 4.16995395 -17.3125 1.5 C-11.13141587 -2.50935187 -6.67881601 -2.10909979 0 0 Z " fill="#097DE2" transform="translate(84,121)"/>
<path d="M0 0 C0 0.33 0 0.66 0 1 C-2.31 1.66 -4.62 2.32 -7 3 C-7 3.66 -7 4.32 -7 5 C-6.01 5.33 -5.02 5.66 -4 6 C-8.95 6 -13.9 6 -19 6 C-17 2 -17 2 -14.5625 0.75 C-9.68400622 -0.27705132 -4.96577389 -0.15904614 0 0 Z " fill="#1386D8" transform="translate(244,53)"/>
<path d="M0 0 C2 1 2 1 2 1 Z M-2 0 C-1.34 0.66 -0.68 1.32 0 2 C-0.99 2.33 -1.98 2.66 -3 3 C-3.67818526 4.32751157 -4.3428399 5.6619556 -5 7 C-6.98828125 9.140625 -6.98828125 9.140625 -9.3125 11.25 C-10.07175781 11.95640625 -10.83101562 12.6628125 -11.61328125 13.390625 C-14.3499599 15.23597951 -15.76852356 15.34316564 -19 15 C-18.34 14.67 -17.68 14.34 -17 14 C-16.67 13.01 -16.34 12.02 -16 11 C-14.2578125 9.4296875 -14.2578125 9.4296875 -12.125 7.875 C-11.07699219 7.09769531 -11.07699219 7.09769531 -10.0078125 6.3046875 C-8 5 -8 5 -5 4 C-4.67 3.01 -4.34 2.02 -4 1 C-3.34 0.67 -2.68 0.34 -2 0 Z " fill="#087ECC" transform="translate(262,143)"/>
<path d="M0 0 C0 0.66 0 1.32 0 2 C-5.75 5 -5.75 5 -8 5 C-7.90460938 5.68707031 -7.80921875 6.37414062 -7.7109375 7.08203125 C-7.60007812 7.98308594 -7.48921875 8.88414063 -7.375 9.8125 C-7.25898437 10.70582031 -7.14296875 11.59914062 -7.0234375 12.51953125 C-7 15 -7 15 -9 18 C-9.04898438 17.08476562 -9.09796875 16.16953125 -9.1484375 15.2265625 C-9.22320312 14.03804687 -9.29796875 12.84953125 -9.375 11.625 C-9.44460937 10.44164062 -9.51421875 9.25828125 -9.5859375 8.0390625 C-9.70217346 4.89437681 -9.70217346 4.89437681 -12 3 C-12 2.34 -12 1.68 -12 1 C-3.96428571 -1.27678571 -3.96428571 -1.27678571 0 0 Z " fill="#0993EF" transform="translate(94,119)"/>
<path d="M0 0 C0.33 0.66 0.66 1.32 1 2 C-1.28166215 5.42249322 -3.02308118 6.30277504 -6.625 8.1875 C-7.62789062 8.71730469 -8.63078125 9.24710938 -9.6640625 9.79296875 C-10.43492188 10.19128906 -11.20578125 10.58960937 -12 11 C-12 10.34 -12 9.68 -12 9 C-12.99 9.66 -13.98 10.32 -15 11 C-15.99 10.67 -16.98 10.34 -18 10 C-16.39805929 9.01719585 -14.79336258 8.03888283 -13.1875 7.0625 C-12.29417969 6.51722656 -11.40085937 5.97195312 -10.48046875 5.41015625 C-8 4 -8 4 -5 3 C-4.34 2.34 -3.68 1.68 -3 1 C-2.01 0.67 -1.02 0.34 0 0 Z " fill="#1688D8" transform="translate(118,101)"/>
<path d="M0 0 C0.66 0.33 1.32 0.66 2 1 C-5.09802515 5.73201676 -12.64844589 9.45119576 -20.31445312 13.16162109 C-21.64723185 13.82453566 -22.94795246 14.55186743 -24.234375 15.30078125 C-26.50981606 16.20189618 -27.69689607 15.66266311 -30 15 C-29.48203857 14.75878418 -28.96407715 14.51756836 -28.43041992 14.26904297 C-26.01439263 13.14133119 -23.60056073 12.00904611 -21.1875 10.875 C-19.88921265 10.26519287 -19.88921265 10.26519287 -18.56469727 9.64306641 C-12.87308156 6.94756999 -7.35989713 4.09834807 -1.93359375 0.8984375 C-1.29550781 0.60195312 -0.65742188 0.30546875 0 0 Z " fill="#078FEE" transform="translate(203,151)"/>
<path d="M0 0 C0.33 0.66 0.66 1.32 1 2 C2.32 2.33 3.64 2.66 5 3 C4.01 5.97 3.02 8.94 2 12 C1.34 12 0.68 12 0 12 C0 11.34 0 10.68 0 10 C-0.99 10 -1.98 10 -3 10 C-2.49287967 6.28111761 -1.88391785 3.26545761 0 0 Z " fill="#008DFC" transform="translate(108,136)"/>
<path d="M0 0 C0.6875 1.6875 0.6875 1.6875 1 4 C-0.4375 6.75 -0.4375 6.75 -2 9 C-3.32 8.67 -4.64 8.34 -6 8 C-6.33 5.69 -6.66 3.38 -7 1 C-3.535 0.505 -3.535 0.505 0 0 Z " fill="#24D0FD" transform="translate(285,225)"/>
<path d="M0 0 C0 0.33 0 0.66 0 1 C-1.5778125 1.433125 -1.5778125 1.433125 -3.1875 1.875 C-6.82620808 2.81998646 -6.82620808 2.81998646 -9.3125 4.1875 C-13.56205564 5.47224938 -17.65897044 4.62375959 -22 4 C-22 3.67 -22 3.34 -22 3 C-20.91332031 2.81824219 -20.91332031 2.81824219 -19.8046875 2.6328125 C-13.62970631 1.56626509 -13.62970631 1.56626509 -7.625 -0.1875 C-4.65246864 -1.10756923 -2.9523251 -0.86833091 0 0 Z " fill="#1899E3" transform="translate(262,49)"/>
<path d="M0 0 C0.515625 0.268125 1.03125 0.53625 1.5625 0.8125 C7.67300858 3.78941444 12.68674668 5.51427757 19.4375 6.1875 C20.16904297 6.26935547 20.90058594 6.35121094 21.65429688 6.43554688 C23.43514466 6.63341885 25.21744927 6.81810707 27 7 C27 7.33 27 7.66 27 8 C7.49285577 8.75892348 7.49285577 8.75892348 1.23046875 3.51953125 C0 2 0 2 0 0 Z " fill="#056FDB" transform="translate(50,190)"/>
<path d="M0 0 C0.61875 0.165 1.2375 0.33 1.875 0.5 C6.25470729 1.20075317 10.57428989 1.07734251 15 1 C14.67 1.66 14.34 2.32 14 3 C11.890625 3.66796875 11.890625 3.66796875 9.25 4.1875 C8.38890625 4.36667969 7.5278125 4.54585937 6.640625 4.73046875 C3.84843739 5.01547015 1.70728521 4.68655974 -1 4 C-0.67 2.68 -0.34 1.36 0 0 Z " fill="#0377E6" transform="translate(85,182)"/>
<path d="M0 0 C1.65 0.33 3.3 0.66 5 1 C4.67 2.32 4.34 3.64 4 5 C2.741875 5.185625 1.48375 5.37125 0.1875 5.5625 C-0.87404297 5.71912109 -0.87404297 5.71912109 -1.95703125 5.87890625 C-4 6 -4 6 -7 5 C-7 4.34 -7 3.68 -7 3 C-6.21625 3.061875 -5.4325 3.12375 -4.625 3.1875 C-3.75875 3.125625 -2.8925 3.06375 -2 3 C-1.34 2.01 -0.68 1.02 0 0 Z " fill="#0B8BE3" transform="translate(292,137)"/>
<path d="M0 0 C3.79948314 0.52770599 6.16920193 1.37140179 9 4 C10.04976964 7.14930893 10.10131595 9.38814456 10.0625 12.6875 C10.05347656 13.68136719 10.04445313 14.67523438 10.03515625 15.69921875 C10.02355469 16.45847656 10.01195312 17.21773437 10 18 C9.67 18 9.34 18 9 18 C8.81824219 16.98679687 8.81824219 16.98679687 8.6328125 15.953125 C8.46523438 15.06109375 8.29765625 14.1690625 8.125 13.25 C7.88136719 11.92742187 7.88136719 11.92742187 7.6328125 10.578125 C7.02208595 8.08997979 6.35587427 6.16939882 5 4 C2.46229997 2.71745356 2.46229997 2.71745356 0 2 C0 1.34 0 0.68 0 0 Z " fill="#0F88DD" transform="translate(273,61)"/>
<path d="M0 0 C0.66 0.66 1.32 1.32 2 2 C-0.59356629 3.70424172 -3.20135036 5.38534714 -5.8125 7.0625 C-6.55048828 7.54783203 -7.28847656 8.03316406 -8.04882812 8.53320312 C-8.76103516 8.98759766 -9.47324219 9.44199219 -10.20703125 9.91015625 C-10.8616333 10.33433838 -11.51623535 10.75852051 -12.19067383 11.19555664 C-14 12 -14 12 -17 11 C-16.10796875 10.45730469 -15.2159375 9.91460937 -14.296875 9.35546875 C-13.11451896 8.63291783 -11.93223087 7.9102557 -10.75 7.1875 C-10.16347656 6.83107422 -9.57695312 6.47464844 -8.97265625 6.10742188 C-5.86502639 4.20443505 -2.8676454 2.2501079 0 0 Z " fill="#0EADF6" transform="translate(229,123)"/>
<path d="M0 0 C0 0.33 0 0.66 0 1 C-0.89203125 1.03738281 -1.7840625 1.07476562 -2.703125 1.11328125 C-3.87359375 1.17902344 -5.0440625 1.24476562 -6.25 1.3125 C-7.41015625 1.37050781 -8.5703125 1.42851563 -9.765625 1.48828125 C-13.10819638 2.01711803 -14.5497057 2.73772333 -17 5 C-17.66 4.67 -18.32 4.34 -19 4 C-13.45382771 -2.65540674 -7.61320635 -2.40417043 0 0 Z " fill="#0E8BE3" transform="translate(84,121)"/>
<path d="M0 0 C1.32 0.99 2.64 1.98 4 3 C4.33 2.67 4.66 2.34 5 2 C6.32 2.66 7.64 3.32 9 4 C9 4.66 9 5.32 9 6 C7.02 6.66 5.04 7.32 3 8 C0 3.375 0 3.375 0 0 Z " fill="#0873BD" transform="translate(168,212)"/>
<path d="M0 0 C0.60972656 0.19851562 1.21945313 0.39703125 1.84765625 0.6015625 C1.25597656 0.97667969 0.66429687 1.35179687 0.0546875 1.73828125 C-4.51215999 4.69592963 -8.48412315 7.57835281 -12.15234375 11.6015625 C-12.15234375 8.6015625 -12.15234375 8.6015625 -9.96484375 6.1640625 C-9.03671875 5.3184375 -8.10859375 4.4728125 -7.15234375 3.6015625 C-6.30671875 2.8178125 -5.46109375 2.0340625 -4.58984375 1.2265625 C-2.15234375 -0.3984375 -2.15234375 -0.3984375 0 0 Z " fill="#1798E7" transform="translate(163.15234375,38.3984375)"/>
<path d="M0 0 C2.375 0.1875 2.375 0.1875 5 1 C6.92164209 4.05715786 7.03249175 5.7129895 6.625 9.3125 C6.41875 10.199375 6.2125 11.08625 6 12 C5.67 12 5.34 12 5 12 C4.89042969 11.43410156 4.78085937 10.86820313 4.66796875 10.28515625 C4.50941406 9.55167969 4.35085938 8.81820312 4.1875 8.0625 C4.03667969 7.33160156 3.88585937 6.60070312 3.73046875 5.84765625 C3.48941406 5.23792969 3.24835938 4.62820312 3 4 C2.01 3.67 1.02 3.34 0 3 C0 2.01 0 1.02 0 0 Z " fill="#0C84DC" transform="translate(293,124)"/>
<path d="M0 0 C3.24208567 0.35049575 4.61527704 0.56221181 6.8125 3.0625 C7.204375 3.701875 7.59625 4.34125 8 5 C5.36 5.66 2.72 6.32 0 7 C0 4.69 0 2.38 0 0 Z " fill="#047EDA" transform="translate(189,205)"/>
<path d="M0 0 C0 0.33 0 0.66 0 1 C-2.31 1 -4.62 1 -7 1 C-7.33 1.99 -7.66 2.98 -8 4 C-8.99 4 -9.98 4 -11 4 C-11.28875 4.804375 -11.5775 5.60875 -11.875 6.4375 C-13 9 -13 9 -15 10 C-14.13084629 6.52338517 -13.28170139 4.31484273 -10.875 1.625 C-6.96445998 -0.58530523 -4.44468087 -0.3013343 0 0 Z " fill="#0D8FE9" transform="translate(158,209)"/>
<path d="M0 0 C0 3 0 3 -2.40625 5.48046875 C-3.43005231 6.39125392 -4.46167034 7.29331192 -5.5 8.1875 C-6.02464844 8.65091797 -6.54929687 9.11433594 -7.08984375 9.59179688 C-8.38666224 10.735355 -9.69249867 11.86867174 -11 13 C-11.66 12.67 -12.32 12.34 -13 12 C-11.3989569 10.3719224 -9.79405264 8.74764115 -8.1875 7.125 C-7.29417969 6.22007813 -6.40085937 5.31515625 -5.48046875 4.3828125 C-3 2 -3 2 0 0 Z " fill="#0C94EB" transform="translate(264,107)"/>
<path d="M0 0 C0.99 0.33 1.98 0.66 3 1 C3.12375 1.969375 3.2475 2.93875 3.375 3.9375 C3.684375 5.4534375 3.684375 5.4534375 4 7 C4.66 7.33 5.32 7.66 6 8 C5.02149805 9.02104551 4.02019573 10.0206121 3 11 C2.67 11 2.34 11 2 11 C1.67 9.02 1.34 7.04 1 5 C0.67 5 0.34 5 0 5 C0 3.35 0 1.7 0 0 Z " fill="#1A8AD1" transform="translate(298,73)"/>
<path d="M0 0 C1.65 0.33 3.3 0.66 5 1 C4.67 1.66 4.34 2.32 4 3 C4.66 3.66 5.32 4.32 6 5 C5.34 6.32 4.68 7.64 4 9 C4 7.68 4 6.36 4 5 C1.69 5 -0.62 5 -3 5 C-1.68 4.01 -0.36 3.02 1 2 C0.67 1.34 0.34 0.68 0 0 Z " fill="#18C0FB" transform="translate(163,37)"/>
<path d="M0 0 C0.33 0 0.66 0 1 0 C1.22134176 2.12368444 1.42670007 4.24904024 1.625 6.375 C1.74101562 7.55835937 1.85703125 8.74171875 1.9765625 9.9609375 C1.98429687 10.96382812 1.99203125 11.96671875 2 13 C1.34 13.66 0.68 14.32 0 15 C-1.47193312 12.05613377 -0.84936173 9.62609964 -0.5625 6.375 C-0.46066406 5.18648438 -0.35882813 3.99796875 -0.25390625 2.7734375 C-0.17011719 1.85820313 -0.08632813 0.94296875 0 0 Z " fill="#1175BF" transform="translate(299,75)"/>
<path d="M0 0 C0.66 0 1.32 0 2 0 C1.67 1.98 1.34 3.96 1 6 C0.34 6 -0.32 6 -1 6 C-1.66 7.98 -2.32 9.96 -3 12 C-4.21386936 8.35839192 -3.6674695 7.66834531 -2.0625 4.3125 C-1.49208984 3.10013672 -1.49208984 3.10013672 -0.91015625 1.86328125 C-0.60980469 1.24839844 -0.30945313 0.63351563 0 0 Z " fill="#0670DB" transform="translate(100,148)"/>
<path d="M0 0 C4.29 0.66 8.58 1.32 13 2 C12.67 2.66 12.34 3.32 12 4 C8.7 4 5.4 4 2 4 C1.34 2.68 0.68 1.36 0 0 Z " fill="#1D94E3" transform="translate(264,50)"/>
<path d="M0 0 C1.32 0 2.64 0 4 0 C2.44499019 3.81684226 -0.03595495 6.19195732 -3 9 C-2.01 6.03 -1.02 3.06 0 0 Z " fill="#0C82E6" transform="translate(62,146)"/>
<path d="M0 0 C-1 3 -1 3 -4 5 C-6.6875 4.625 -6.6875 4.625 -9 4 C-8 2 -8 2 -5.0625 0.875 C-2 0 -2 0 0 0 Z " fill="#0F7BD2" transform="translate(106,110)"/>
<path d="M0 0 C0.33 0.66 0.66 1.32 1 2 C-1 5 -1 5 -3.125 5.6875 C-3.74375 5.790625 -4.3625 5.89375 -5 6 C-4.67 4.35 -4.34 2.7 -4 1 C-2.68 0.67 -1.36 0.34 0 0 Z " fill="#14A5E7" transform="translate(118,101)"/>
<path d="M0 0 C1.54571278 2.31856917 2.79618552 4.50638429 4 7 C3.01 8.32 2.02 9.64 1 11 C0.67 7.37 0.34 3.74 0 0 Z " fill="#0389F5" transform="translate(30,183)"/>
<path d="M0 0 C0.66 0.66 1.32 1.32 2 2 C1.625 4.125 1.625 4.125 1 6 C0.01 6 -0.98 6 -2 6 C-2 4.35 -2 2.7 -2 1 C-1.34 0.67 -0.68 0.34 0 0 Z " fill="#137ACE" transform="translate(303,92)"/>
<path d="M0 0 C0.33 0 0.66 0 1 0 C1 1.65 1 3.3 1 5 C0.34 5 -0.32 5 -1 5 C-0.67 3.35 -0.34 1.7 0 0 Z " fill="#195278" transform="translate(347,177)"/>
<path d="M0 0 C0.99 0.33 1.98 0.66 3 1 C2.01 1.33 1.02 1.66 0 2 C0 1.34 0 0.68 0 0 Z " fill="#0AA9F4" transform="translate(104,106)"/>
<path d="" fill="#2A54D4" transform="translate(0,0)"/>
<path d="M0 0 C2 1 2 1 2 1 Z " fill="#00BFFF" transform="translate(46,250)"/>
<path d="" fill="#00FFFF" transform="translate(0,0)"/>
<path d="M0 0 C2 1 2 1 2 1 Z " fill="#00AAFF" transform="translate(247,231)"/>
<path d="M0 0 C2 1 2 1 2 1 Z " fill="#00FFFF" transform="translate(108,189)"/>
<path d="M0 0 C2 1 2 1 2 1 Z " fill="#00FFFF" transform="translate(83,189)"/>
<path d="M0 0 C2 1 2 1 2 1 Z " fill="#002AD4" transform="translate(343,181)"/>
<path d="" fill="#00BFFF" transform="translate(0,0)"/>
<path d="M0 0 C2 1 2 1 2 1 Z " fill="#2EA1FF" transform="translate(105,113)"/>
<path d="" fill="#00FFFF" transform="translate(0,0)"/>
<path d="" fill="#00BFFF" transform="translate(0,0)"/>
<path d="M0 0 C2 1 2 1 2 1 Z " fill="#2AD4FF" transform="translate(212,63)"/>
<path d="M0 0 C2 1 2 1 2 1 Z " fill="#1FDFFF" transform="translate(242,50)"/>
<path d="" fill="#00FFFF" transform="translate(0,0)"/>
<path d="" fill="#00FFFF" transform="translate(0,0)"/>
<path d="" fill="#00FFFF" transform="translate(0,0)"/>
<path d="" fill="#00FFFF" transform="translate(0,0)"/>
<path d="" fill="#00FFFF" transform="translate(0,0)"/>
<path d="" fill="#00FFFF" transform="translate(0,0)"/>
<path d="" fill="#00FFFF" transform="translate(0,0)"/>
<path d="" fill="#00FFFF" transform="translate(0,0)"/>
<path d="" fill="#00FFFF" transform="translate(0,0)"/>
<path d="" fill="#00FFFF" transform="translate(0,0)"/>
<path d="" fill="#007FFF" transform="translate(0,0)"/>
<path d="" fill="#00FFFF" transform="translate(0,0)"/>
<path d="" fill="#00AAFF" transform="translate(0,0)"/>
<path d="" fill="#007FFF" transform="translate(0,0)"/>
<path d="" fill="#007FFF" transform="translate(0,0)"/>
<path d="" fill="#007FFF" transform="translate(0,0)"/>
<path d="" fill="#00FFFF" transform="translate(0,0)"/>
<path d="" fill="#007FFF" transform="translate(0,0)"/>
<path d="" fill="#00FFFF" transform="translate(0,0)"/>
<path d="" fill="#007FFF" transform="translate(0,0)"/>
<path d="" fill="#00AAFF" transform="translate(0,0)"/>
<path d="" fill="#00FFFF" transform="translate(0,0)"/>
<path d="" fill="#00FFFF" transform="translate(0,0)"/>
<path d="" fill="#00FFFF" transform="translate(0,0)"/>
<path d="" fill="#007FFF" transform="translate(0,0)"/>
<path d="" fill="#00AAFF" transform="translate(0,0)"/>
<path d="" fill="#007FFF" transform="translate(0,0)"/>
<path d="" fill="#00FFFF" transform="translate(0,0)"/>
<path d="" fill="#007FFF" transform="translate(0,0)"/>
<path d="" fill="#00FFFF" transform="translate(0,0)"/>
<path d="" fill="#00FFFF" transform="translate(0,0)"/>
<path d="" fill="#007FFF" transform="translate(0,0)"/>
<path d="" fill="#00FFFF" transform="translate(0,0)"/>
<path d="" fill="#00FFFF" transform="translate(0,0)"/>
<path d="" fill="#00FFFF" transform="translate(0,0)"/>
<path d="" fill="#00FFFF" transform="translate(0,0)"/>
<path d="" fill="#007FFF" transform="translate(0,0)"/>
<path d="" fill="#00FFFF" transform="translate(0,0)"/>
<path d="" fill="#55AAFF" transform="translate(0,0)"/>
<path d="" fill="#007FFF" transform="translate(0,0)"/>
<path d="" fill="#0000FF" transform="translate(0,0)"/>
<path d="" fill="#007FFF" transform="translate(0,0)"/>
<path d="" fill="#007FFF" transform="translate(0,0)"/>
<path d="" fill="#00FFFF" transform="translate(0,0)"/>
<path d="" fill="#00AAFF" transform="translate(0,0)"/>
<path d="" fill="#00FFFF" transform="translate(0,0)"/>
<path d="" fill="#00FFFF" transform="translate(0,0)"/>
<path d="" fill="#00FFFF" transform="translate(0,0)"/>
<path d="" fill="#00FFFF" transform="translate(0,0)"/>
<path d="" fill="#00FFFF" transform="translate(0,0)"/>
<path d="" fill="#007F7F" transform="translate(0,0)"/>
<path d="" fill="#00FFFF" transform="translate(0,0)"/>
<path d="" fill="#00FFFF" transform="translate(0,0)"/>
<path d="" fill="#007FFF" transform="translate(0,0)"/>
<path d="" fill="#00FFFF" transform="translate(0,0)"/>
<path d="" fill="#007FFF" transform="translate(0,0)"/>
<path d="" fill="#00FFFF" transform="translate(0,0)"/>
<path d="" fill="#00FFFF" transform="translate(0,0)"/>
<path d="" fill="#00FFFF" transform="translate(0,0)"/>
<path d="" fill="#00BFFF" transform="translate(0,0)"/>
<path d="" fill="#00FFFF" transform="translate(0,0)"/>
<path d="" fill="#00FFFF" transform="translate(0,0)"/>
<path d="" fill="#00FFFF" transform="translate(0,0)"/>
<path d="" fill="#00FFFF" transform="translate(0,0)"/>
<path d="" fill="#00FFFF" transform="translate(0,0)"/>
<path d="" fill="#00FFFF" transform="translate(0,0)"/>
<path d="" fill="#00FFFF" transform="translate(0,0)"/>
<path d="" fill="#00FFFF" transform="translate(0,0)"/>
<path d="" fill="#007FFF" transform="translate(0,0)"/>
<path d="" fill="#00FFFF" transform="translate(0,0)"/>
<path d="" fill="#007FFF" transform="translate(0,0)"/>
<path d="" fill="#007FFF" transform="translate(0,0)"/>
<path d="" fill="#00FFFF" transform="translate(0,0)"/>
<path d="" fill="#00FFFF" transform="translate(0,0)"/>
<path d="" fill="#00FFFF" transform="translate(0,0)"/>
<path d="" fill="#00AAFF" transform="translate(0,0)"/>
<path d="" fill="#00FFFF" transform="translate(0,0)"/>
<path d="" fill="#00FFFF" transform="translate(0,0)"/>
<path d="" fill="#00FFFF" transform="translate(0,0)"/>
<path d="" fill="#00FFFF" transform="translate(0,0)"/>
<path d="" fill="#00FFFF" transform="translate(0,0)"/>
<path d="" fill="#00FFFF" transform="translate(0,0)"/>
<path d="" fill="#007FFF" transform="translate(0,0)"/>
<path d="" fill="#00FFFF" transform="translate(0,0)"/>
<path d="" fill="#00FFFF" transform="translate(0,0)"/>
<path d="" fill="#3FBFFF" transform="translate(0,0)"/>
<path d="" fill="#00AAFF" transform="translate(0,0)"/>
<path d="" fill="#00FFFF" transform="translate(0,0)"/>
<path d="" fill="#00BFFF" transform="translate(0,0)"/>
<path d="" fill="#00FFFF" transform="translate(0,0)"/>
<path d="" fill="#00AAFF" transform="translate(0,0)"/>
<path d="" fill="#00FFFF" transform="translate(0,0)"/>
<path d="" fill="#00FFFF" transform="translate(0,0)"/>
<path d="" fill="#00FFFF" transform="translate(0,0)"/>
<path d="" fill="#00FFFF" transform="translate(0,0)"/>
<path d="" fill="#00FFFF" transform="translate(0,0)"/>
<path d="" fill="#007FFF" transform="translate(0,0)"/>
<path d="" fill="#00FFFF" transform="translate(0,0)"/>
<path d="" fill="#007FFF" transform="translate(0,0)"/>
<path d="" fill="#00FFFF" transform="translate(0,0)"/>
<path d="" fill="#007FFF" transform="translate(0,0)"/>
<path d="" fill="#00FFFF" transform="translate(0,0)"/>
<path d="" fill="#00AAFF" transform="translate(0,0)"/>
<path d="" fill="#00FFFF" transform="translate(0,0)"/>
<path d="" fill="#00AAFF" transform="translate(0,0)"/>
<path d="" fill="#00FFFF" transform="translate(0,0)"/>
<path d="" fill="#00FFFF" transform="translate(0,0)"/>
<path d="" fill="#00FFFF" transform="translate(0,0)"/>
<path d="" fill="#007FFF" transform="translate(0,0)"/>
<path d="" fill="#00FFFF" transform="translate(0,0)"/>
<path d="" fill="#00FFFF" transform="translate(0,0)"/>
<path d="" fill="#00FFFF" transform="translate(0,0)"/>
<path d="" fill="#00FFFF" transform="translate(0,0)"/>
<path d="" fill="#00FFFF" transform="translate(0,0)"/>
<path d="" fill="#00FFFF" transform="translate(0,0)"/>
<path d="" fill="#00FFFF" transform="translate(0,0)"/>
<path d="" fill="#007FFF" transform="translate(0,0)"/>
<path d="" fill="#007FFF" transform="translate(0,0)"/>
<path d="" fill="#007FFF" transform="translate(0,0)"/>
<path d="" fill="#00FFFF" transform="translate(0,0)"/>
<path d="" fill="#00FFFF" transform="translate(0,0)"/>
<path d="" fill="#007FFF" transform="translate(0,0)"/>
<path d="" fill="#55AAFF" transform="translate(0,0)"/>
<path d="" fill="#00FFFF" transform="translate(0,0)"/>
<path d="" fill="#00FFFF" transform="translate(0,0)"/>
<path d="" fill="#00FFFF" transform="translate(0,0)"/>
<path d="" fill="#00FFFF" transform="translate(0,0)"/>
<path d="" fill="#00FFFF" transform="translate(0,0)"/>
<path d="" fill="#00FFFF" transform="translate(0,0)"/>
<path d="" fill="#55AAFF" transform="translate(0,0)"/>
<path d="" fill="#00FFFF" transform="translate(0,0)"/>
<path d="" fill="#00FFFF" transform="translate(0,0)"/>
<path d="" fill="#00FFFF" transform="translate(0,0)"/>
<path d="" fill="#00FFFF" transform="translate(0,0)"/>
<path d="" fill="#00FFFF" transform="translate(0,0)"/>
<path d="" fill="#7F7FFF" transform="translate(0,0)"/>
<path d="" fill="#00FFFF" transform="translate(0,0)"/>
<path d="" fill="#7F7F7F" transform="translate(0,0)"/>
<path d="" fill="#7F7F7F" transform="translate(0,0)"/>
</svg>
